<svg id="svg" version="1.1" xmlns="http://www.w3.org/2000/svg" xmlns:xlink="http://www.w3.org/1999/xlink" width="400" height="400" viewBox="0, 0, 400,400"><g id="svgg"><path id="path0" d="M128.200 115.209 C 127.510 115.390,128.444 115.431,130.400 115.306 C 132.270 115.187,133.875 115.025,133.967 114.945 C 134.281 114.671,129.400 114.895,128.200 115.209 M138.033 114.948 C 138.125 115.029,139.550 115.196,141.200 115.318 C 143.031 115.453,143.732 115.414,143.000 115.217 C 141.792 114.893,137.723 114.672,138.033 114.948 M274.200 115.205 C 273.528 115.379,274.584 115.421,276.600 115.302 C 278.580 115.185,280.275 115.024,280.367 114.944 C 280.681 114.672,275.400 114.895,274.200 115.205 M282.833 114.944 C 282.925 115.024,284.620 115.185,286.600 115.302 C 288.616 115.421,289.672 115.379,289.000 115.205 C 287.800 114.895,282.519 114.672,282.833 114.944 M123.800 116.000 C 122.781 116.438,123.832 116.438,125.200 116.000 C 126.004 115.743,126.043 115.677,125.400 115.668 C 124.960 115.662,124.240 115.811,123.800 116.000 M146.000 116.000 C 147.368 116.438,148.419 116.438,147.400 116.000 C 146.960 115.811,146.240 115.662,145.800 115.668 C 145.157 115.677,145.196 115.743,146.000 116.000 M269.800 116.000 L 269.000 116.344 269.800 116.332 C 270.240 116.326,271.050 116.176,271.600 116.000 L 272.600 115.680 271.600 115.668 C 271.050 115.662,270.240 115.811,269.800 116.000 M292.000 116.000 C 293.368 116.438,294.419 116.438,293.400 116.000 C 292.960 115.811,292.240 115.662,291.800 115.668 C 291.157 115.677,291.196 115.743,292.000 116.000 M120.600 116.800 C 120.096 117.017,120.022 117.144,120.400 117.144 C 120.730 117.144,121.360 116.989,121.800 116.800 C 122.304 116.583,122.378 116.456,122.000 116.456 C 121.670 116.456,121.040 116.611,120.600 116.800 M149.400 116.800 C 149.840 116.989,150.470 117.144,150.800 117.144 C 151.178 117.144,151.104 117.017,150.600 116.800 C 150.160 116.611,149.530 116.456,149.200 116.456 C 148.822 116.456,148.896 116.583,149.400 116.800 M266.600 116.800 C 266.096 117.017,266.022 117.144,266.400 117.144 C 266.730 117.144,267.360 116.989,267.800 116.800 C 268.304 116.583,268.378 116.456,268.000 116.456 C 267.670 116.456,267.040 116.611,266.600 116.800 M295.400 116.800 C 295.840 116.989,296.470 117.144,296.800 117.144 C 297.178 117.144,297.104 117.017,296.600 116.800 C 296.160 116.611,295.530 116.456,295.200 116.456 C 294.822 116.456,294.896 116.583,295.400 116.800 M112.800 119.600 C 112.030 120.022,111.513 120.374,111.651 120.383 C 112.065 120.411,114.800 119.205,114.800 118.995 C 114.800 118.646,114.225 118.820,112.800 119.600 M156.400 118.995 C 156.400 119.205,159.135 120.411,159.549 120.383 C 159.870 120.362,157.101 118.839,156.700 118.817 C 156.535 118.808,156.400 118.888,156.400 118.995 M302.400 118.995 C 302.400 119.205,305.135 120.411,305.549 120.383 C 305.870 120.362,303.101 118.839,302.700 118.817 C 302.535 118.808,302.400 118.888,302.400 118.995 M254.500 121.829 C 253.125 122.609,252.000 123.339,252.000 123.453 C 252.000 123.674,256.348 121.306,256.980 120.740 C 257.684 120.110,257.013 120.405,254.500 121.829 M108.200 122.000 C 107.540 122.437,107.180 122.792,107.400 122.788 C 107.801 122.782,109.976 121.223,109.600 121.212 C 109.490 121.208,108.860 121.563,108.200 122.000 M162.400 121.964 C 162.950 122.414,163.580 122.783,163.800 122.785 C 164.228 122.788,163.505 122.234,162.200 121.560 C 161.669 121.285,161.736 121.421,162.400 121.964 M308.400 121.964 C 308.950 122.414,309.580 122.783,309.800 122.785 C 310.228 122.788,309.505 122.234,308.200 121.560 C 307.669 121.285,307.736 121.421,308.400 121.964 M104.993 123.866 C 102.668 125.421,99.707 127.879,97.200 130.334 C 95.990 131.519,96.710 131.002,98.800 129.185 C 100.890 127.368,103.545 125.253,104.700 124.484 C 106.538 123.261,107.084 122.800,106.693 122.800 C 106.634 122.800,105.869 123.280,104.993 123.866 M164.400 122.901 C 164.400 123.155,167.496 125.200,167.880 125.200 C 168.044 125.200,167.823 124.958,167.389 124.661 C 165.481 123.359,164.400 122.722,164.400 122.901 M311.186 123.470 C 315.209 126.451,316.600 127.572,319.600 130.247 L 323.000 133.279 319.974 130.339 C 316.885 127.338,313.546 124.644,311.400 123.422 C 310.212 122.746,310.210 122.746,311.186 123.470 M249.318 125.160 C 246.629 127.130,244.275 129.200,244.724 129.200 C 244.918 129.200,245.412 128.828,245.823 128.374 C 246.234 127.920,247.702 126.741,249.085 125.754 C 250.468 124.767,251.600 123.879,251.600 123.780 C 251.600 123.499,251.525 123.544,249.318 125.160 M170.200 127.324 C 171.300 128.336,172.363 129.172,172.562 129.182 C 172.986 129.203,171.129 127.522,169.400 126.319 C 168.740 125.860,169.100 126.313,170.200 127.324 M174.400 131.000 C 175.146 131.770,175.847 132.400,175.957 132.400 C 176.067 132.400,175.546 131.770,174.800 131.000 C 174.054 130.230,173.353 129.600,173.243 129.600 C 173.133 129.600,173.654 130.230,174.400 131.000 M239.461 134.262 C 238.834 134.998,238.474 135.590,238.661 135.578 C 239.050 135.552,240.969 133.221,240.747 133.042 C 240.666 132.978,240.087 133.526,239.461 134.262 M92.500 135.378 C 91.785 136.313,91.200 137.209,91.200 137.370 C 91.200 137.530,91.842 136.820,92.627 135.791 C 93.412 134.763,93.997 133.866,93.927 133.799 C 93.857 133.732,93.215 134.442,92.500 135.378 M323.664 134.700 C 324.221 135.305,324.975 136.245,325.339 136.789 C 325.702 137.333,326.000 137.621,326.000 137.428 C 326.000 136.895,323.452 133.626,323.025 133.612 C 322.819 133.606,323.106 134.095,323.664 134.700 M178.038 134.977 C 178.388 135.430,178.973 136.245,179.338 136.789 C 179.702 137.333,180.000 137.588,180.000 137.356 C 180.000 137.123,179.415 136.308,178.700 135.543 C 177.985 134.779,177.687 134.524,178.038 134.977 M236.273 138.500 C 234.643 140.806,233.163 143.300,233.735 142.778 C 234.161 142.388,238.372 136.000,238.203 136.000 C 238.114 136.000,237.245 137.125,236.273 138.500 M88.214 141.435 C 87.841 142.004,87.627 142.561,87.739 142.672 C 87.850 142.783,88.229 142.318,88.581 141.637 C 89.359 140.133,89.144 140.015,88.214 141.435 M182.600 141.600 C 182.941 142.260,183.311 142.800,183.421 142.800 C 183.531 142.800,183.341 142.260,183.000 141.600 C 182.659 140.940,182.289 140.400,182.179 140.400 C 182.069 140.400,182.259 140.940,182.600 141.600 M328.524 141.400 C 328.862 142.060,329.438 142.960,329.804 143.400 C 330.170 143.840,330.065 143.480,329.570 142.600 C 328.480 140.658,327.664 139.722,328.524 141.400 M86.600 144.400 C 86.259 145.060,86.069 145.600,86.179 145.600 C 86.289 145.600,86.659 145.060,87.000 144.400 C 87.341 143.740,87.531 143.200,87.421 143.200 C 87.311 143.200,86.941 143.740,86.600 144.400 M231.781 146.037 C 231.429 146.718,231.212 147.345,231.299 147.432 C 231.386 147.519,231.756 146.962,232.122 146.195 C 232.944 144.470,232.659 144.338,231.781 146.037 M331.218 146.051 C 331.180 146.580,332.457 149.276,332.652 149.081 C 332.765 148.968,332.493 148.184,332.047 147.338 C 331.600 146.492,331.227 145.913,331.218 146.051 M332.812 150.000 C 332.812 150.330,332.987 150.870,333.200 151.200 C 333.545 151.733,333.588 151.733,333.588 151.200 C 333.588 150.870,333.413 150.330,333.200 150.000 C 332.855 149.467,332.812 149.467,332.812 150.000 M229.049 152.615 C 228.912 152.973,228.815 153.566,228.834 153.933 C 228.853 154.300,229.027 154.069,229.221 153.420 C 229.598 152.158,229.465 151.533,229.049 152.615 M82.229 155.429 C 82.081 156.015,82.038 156.572,82.132 156.666 C 82.227 156.760,82.424 156.358,82.571 155.771 C 82.719 155.185,82.762 154.628,82.668 154.534 C 82.573 154.440,82.376 154.842,82.229 155.429 M334.434 154.800 C 334.446 155.130,334.611 155.760,334.800 156.200 L 335.144 157.000 335.166 156.200 C 335.178 155.760,335.013 155.130,334.800 154.800 C 334.455 154.267,334.415 154.267,334.434 154.800 M228.249 155.415 C 228.112 155.773,228.015 156.366,228.034 156.733 C 228.053 157.100,228.227 156.869,228.421 156.220 C 228.798 154.958,228.665 154.333,228.249 155.415 M129.197 156.774 C 126.568 157.574,123.596 159.637,121.960 161.800 C 121.460 162.460,121.923 162.134,122.989 161.076 C 125.005 159.074,127.016 157.864,129.778 156.991 C 130.670 156.710,131.130 156.477,130.800 156.474 C 130.470 156.471,129.749 156.606,129.197 156.774 M136.600 156.800 C 137.040 156.989,137.670 157.144,138.000 157.144 C 138.378 157.144,138.304 157.017,137.800 156.800 C 137.360 156.611,136.730 156.456,136.400 156.456 C 136.022 156.456,136.096 156.583,136.600 156.800 M275.400 156.800 C 274.896 157.017,274.822 157.144,275.200 157.144 C 275.530 157.144,276.160 156.989,276.600 156.800 C 277.104 156.583,277.178 156.456,276.800 156.456 C 276.470 156.456,275.840 156.611,275.400 156.800 M282.800 156.782 C 283.130 157.005,283.715 157.191,284.100 157.194 C 284.956 157.201,284.964 157.434,284.183 159.647 C 283.050 162.860,284.896 167.005,288.147 168.548 C 290.150 169.498,294.594 169.463,294.197 168.500 C 294.039 168.115,293.824 167.440,293.720 167.000 C 293.054 164.176,289.513 159.695,286.922 158.397 C 286.305 158.088,285.530 157.626,285.200 157.371 C 284.870 157.116,284.060 156.788,283.400 156.642 C 282.523 156.447,282.361 156.485,282.800 156.782 M138.263 158.891 C 136.271 164.106,139.323 168.649,145.153 169.150 C 148.136 169.407,149.027 169.234,148.000 168.600 C 147.780 168.464,147.600 168.001,147.600 167.572 C 147.600 165.168,143.526 159.824,140.600 158.390 C 139.940 158.066,139.293 157.656,139.163 157.479 C 139.032 157.301,138.627 157.937,138.263 158.891 M81.400 158.800 C 81.248 159.491,81.207 160.141,81.309 160.242 C 81.411 160.344,81.609 159.853,81.750 159.150 C 82.083 157.483,81.760 157.160,81.400 158.800 M189.473 159.200 C 189.604 160.190,189.776 161.075,189.856 161.167 C 190.157 161.514,189.928 158.964,189.590 158.200 C 189.353 157.666,189.314 157.998,189.473 159.200 M335.462 159.000 C 335.596 159.880,335.772 160.675,335.853 160.767 C 336.156 161.110,335.929 158.968,335.581 158.200 C 335.329 157.642,335.293 157.885,335.462 159.000 M227.449 158.615 C 227.312 158.973,227.221 159.746,227.246 160.333 C 227.280 161.132,227.370 160.998,227.604 159.800 C 227.935 158.100,227.862 157.540,227.449 158.615 M269.131 160.700 C 268.120 161.745,267.086 163.050,266.835 163.600 L 266.377 164.600 267.087 163.600 C 267.478 163.050,268.588 161.745,269.554 160.700 C 270.519 159.655,271.233 158.800,271.140 158.800 C 271.046 158.800,270.142 159.655,269.131 160.700 M80.657 163.500 C 80.343 165.396,80.411 175.409,80.747 176.977 C 80.886 177.625,81.000 174.520,81.000 170.077 C 81.000 165.635,80.979 162.000,80.952 162.000 C 80.926 162.000,80.793 162.675,80.657 163.500 M190.200 170.000 C 190.200 174.485,190.314 177.625,190.453 176.977 C 190.592 176.330,190.705 173.190,190.705 170.000 C 190.705 166.810,190.592 163.670,190.453 163.023 C 190.314 162.375,190.200 165.515,190.200 170.000 M336.294 165.600 C 336.414 167.690,336.576 169.475,336.656 169.567 C 336.944 169.900,336.711 163.772,336.399 162.800 C 336.218 162.238,336.172 163.463,336.294 165.600 M120.181 164.437 C 119.829 165.118,119.612 165.745,119.699 165.832 C 119.786 165.919,120.156 165.362,120.522 164.595 C 121.344 162.870,121.059 162.738,120.181 164.437 M226.494 169.800 C 226.494 172.880,226.615 175.940,226.761 176.600 C 226.908 177.260,226.967 175.010,226.892 171.600 C 226.717 163.612,226.493 162.596,226.494 169.800 M119.000 167.600 C 118.848 168.291,118.807 168.941,118.909 169.042 C 119.011 169.144,119.209 168.653,119.350 167.950 C 119.683 166.283,119.360 165.960,119.000 167.600 M265.056 167.684 C 264.921 168.188,264.830 169.140,264.853 169.800 C 264.881 170.628,264.997 170.384,265.226 169.013 C 265.576 166.923,265.474 166.126,265.056 167.684 M294.514 171.400 C 294.517 172.500,294.595 172.903,294.687 172.295 C 294.779 171.686,294.777 170.786,294.682 170.295 C 294.587 169.803,294.511 170.300,294.514 171.400 M336.478 172.244 C 336.435 173.368,336.311 175.168,336.202 176.244 C 336.019 178.048,336.035 178.097,336.419 176.876 C 336.648 176.147,336.773 174.347,336.696 172.876 C 336.574 170.533,336.547 170.455,336.478 172.244 M264.806 172.833 C 264.809 173.585,264.992 174.470,265.212 174.800 C 265.491 175.219,265.533 174.858,265.350 173.600 C 265.025 171.359,264.798 171.040,264.806 172.833 M147.850 174.050 C 147.517 175.717,147.840 176.040,148.200 174.400 C 148.352 173.709,148.393 173.059,148.291 172.958 C 148.189 172.856,147.991 173.347,147.850 174.050 M118.834 173.800 C 118.822 174.240,118.987 174.870,119.200 175.200 C 119.714 175.995,119.714 174.996,119.200 173.800 L 118.856 173.000 118.834 173.800 M127.103 173.577 C 128.040 173.730,129.390 174.282,130.103 174.804 C 130.923 175.403,131.190 175.494,130.829 175.050 C 129.952 173.971,128.181 173.195,126.720 173.250 C 125.515 173.296,125.548 173.324,127.103 173.577 M273.200 173.572 C 276.043 174.140,277.483 175.562,278.023 178.334 C 278.292 179.718,278.310 179.733,278.353 178.600 C 278.446 176.092,275.508 173.154,273.000 173.247 C 271.821 173.291,271.825 173.297,273.200 173.572 M123.360 174.960 C 122.612 175.708,122.005 176.563,122.012 176.860 C 122.019 177.161,122.213 177.045,122.450 176.600 C 122.684 176.160,123.437 175.305,124.123 174.700 C 124.809 174.095,125.224 173.600,125.045 173.600 C 124.866 173.600,124.108 174.212,123.360 174.960 M269.903 174.500 C 269.385 174.995,269.240 175.200,269.580 174.956 C 269.921 174.712,270.560 174.312,271.000 174.068 C 271.440 173.824,271.585 173.619,271.322 173.612 C 271.060 173.605,270.421 174.005,269.903 174.500 M293.782 174.900 C 293.114 177.993,290.105 181.962,286.978 183.876 C 286.550 184.139,286.415 184.364,286.677 184.376 C 287.546 184.419,292.041 179.893,292.979 178.031 C 293.891 176.221,294.651 173.600,294.264 173.600 C 294.154 173.600,293.937 174.185,293.782 174.900 M121.600 178.476 C 121.600 179.336,121.588 179.338,120.978 178.576 C 120.381 177.831,120.373 177.836,120.792 178.700 C 121.372 179.896,122.000 179.844,122.000 178.600 C 122.000 178.050,121.910 177.600,121.800 177.600 C 121.690 177.600,121.600 177.994,121.600 178.476 M145.981 178.835 C 145.735 179.295,144.881 180.420,144.084 181.335 L 142.634 183.000 144.023 181.712 C 145.333 180.499,147.092 178.000,146.637 178.000 C 146.522 178.000,146.227 178.376,145.981 178.835 M189.654 179.600 C 189.619 180.150,189.496 181.050,189.383 181.600 L 189.177 182.600 189.607 181.615 C 189.843 181.074,189.965 180.174,189.878 179.615 L 189.720 178.600 189.654 179.600 M227.206 179.833 C 227.209 180.475,227.384 181.270,227.595 181.600 C 227.855 182.009,227.899 181.690,227.732 180.600 C 227.429 178.623,227.198 178.286,227.206 179.833 M81.268 180.000 C 81.262 180.550,81.411 181.360,81.600 181.800 L 81.944 182.600 81.932 181.800 C 81.926 181.360,81.776 180.550,81.600 180.000 L 81.280 179.000 81.268 180.000 M335.422 180.622 C 335.272 181.425,335.238 182.172,335.348 182.282 C 335.458 182.392,335.672 181.825,335.822 181.022 C 335.973 180.219,336.006 179.473,335.896 179.363 C 335.786 179.253,335.573 179.819,335.422 180.622 M131.197 180.807 C 130.904 181.516,130.074 182.363,129.243 182.802 C 128.450 183.221,127.944 183.573,128.120 183.582 C 129.435 183.655,132.583 180.449,131.883 179.750 C 131.787 179.653,131.478 180.129,131.197 180.807 M276.889 181.517 L 275.979 183.000 276.989 181.878 C 277.545 181.260,278.000 180.585,278.000 180.378 C 278.000 179.790,277.865 179.928,276.889 181.517 M228.006 183.433 C 228.009 183.855,228.195 184.470,228.418 184.800 C 228.715 185.238,228.752 185.076,228.556 184.200 C 228.227 182.729,227.998 182.410,228.006 183.433 M334.629 184.229 C 334.481 184.815,334.438 185.372,334.532 185.466 C 334.627 185.560,334.824 185.158,334.971 184.571 C 335.119 183.985,335.162 183.428,335.068 183.334 C 334.973 183.240,334.776 183.642,334.629 184.229 M129.915 185.672 C 130.292 185.821,131.950 185.944,133.600 185.944 C 135.250 185.944,136.908 185.821,137.285 185.672 C 137.662 185.522,136.004 185.400,133.600 185.400 C 131.196 185.400,129.538 185.522,129.915 185.672 M275.800 185.597 C 276.564 185.928,279.514 186.155,279.167 185.856 C 279.075 185.777,278.100 185.609,277.000 185.482 C 275.713 185.333,275.285 185.374,275.800 185.597 M281.600 185.600 C 280.233 185.888,280.228 185.895,281.400 185.919 C 282.060 185.933,282.960 185.789,283.400 185.600 C 284.362 185.187,283.564 185.187,281.600 185.600 M82.812 186.400 C 82.812 186.730,82.987 187.270,83.200 187.600 C 83.545 188.133,83.588 188.133,83.588 187.600 C 83.588 187.270,83.413 186.730,83.200 186.400 C 82.855 185.867,82.812 185.867,82.812 186.400 M333.800 186.800 C 333.650 187.273,333.617 187.750,333.727 187.860 C 333.837 187.970,334.050 187.673,334.200 187.200 C 334.350 186.727,334.383 186.250,334.273 186.140 C 334.163 186.030,333.950 186.327,333.800 186.800 M85.207 192.513 C 85.195 193.032,87.240 196.893,87.428 196.705 C 87.524 196.610,87.065 195.557,86.408 194.366 C 85.752 193.175,85.211 192.341,85.207 192.513 M184.200 195.600 C 183.859 196.260,183.669 196.800,183.779 196.800 C 183.889 196.800,184.259 196.260,184.600 195.600 C 184.941 194.940,185.131 194.400,185.021 194.400 C 184.911 194.400,184.541 194.940,184.200 195.600 M330.246 195.386 C 329.891 195.928,329.600 196.485,329.600 196.624 C 329.600 196.763,329.220 197.410,328.756 198.061 C 328.292 198.713,328.000 199.334,328.108 199.441 C 328.283 199.616,329.501 197.714,330.759 195.300 C 331.386 194.097,331.054 194.153,330.246 195.386 M88.019 198.000 C 89.439 200.750,95.069 208.000,95.784 208.000 C 95.944 208.000,95.223 207.055,94.184 205.900 C 93.144 204.745,91.393 202.450,90.292 200.800 C 88.127 197.554,87.196 196.408,88.019 198.000 M182.600 198.400 C 182.259 199.060,182.069 199.600,182.179 199.600 C 182.289 199.600,182.659 199.060,183.000 198.400 C 183.341 197.740,183.531 197.200,183.421 197.200 C 183.311 197.200,182.941 197.740,182.600 198.400 M235.228 199.900 C 235.719 200.725,236.474 201.760,236.906 202.200 C 237.338 202.640,237.015 201.965,236.189 200.700 C 234.511 198.131,233.844 197.576,235.228 199.900 M180.289 201.784 C 179.677 202.749,178.372 204.434,177.389 205.528 C 176.405 206.622,175.600 207.654,175.600 207.821 C 175.600 207.988,176.064 207.601,176.632 206.962 C 179.342 203.911,182.137 199.922,181.500 200.015 C 181.445 200.023,180.900 200.819,180.289 201.784 M327.200 200.390 C 327.200 200.604,326.034 202.224,324.608 203.990 C 323.183 205.755,322.148 207.191,322.308 207.181 C 322.585 207.163,324.519 204.811,326.980 201.500 C 327.593 200.675,327.894 200.000,327.647 200.000 C 327.401 200.000,327.200 200.175,327.200 200.390 M238.217 203.991 C 239.005 205.141,241.600 208.002,241.583 207.701 C 241.573 207.536,240.718 206.496,239.683 205.391 C 238.647 204.285,237.988 203.655,238.217 203.991 M242.000 208.167 C 242.000 208.588,243.205 209.728,243.421 209.512 C 243.522 209.411,243.244 209.002,242.802 208.602 C 242.361 208.203,242.000 208.007,242.000 208.167 M99.056 211.392 C 101.251 213.372,106.793 217.340,107.031 217.102 C 107.141 216.993,106.279 216.295,105.115 215.553 C 103.952 214.811,101.880 213.257,100.512 212.102 C 97.732 209.753,96.658 209.230,99.056 211.392 M245.313 211.569 C 246.238 212.432,247.056 213.078,247.130 213.004 C 247.303 212.830,244.291 210.025,243.915 210.011 C 243.759 210.005,244.388 210.706,245.313 211.569 M170.631 212.300 C 168.858 214.021,169.103 214.185,172.600 213.620 L 175.000 213.232 172.700 213.387 C 170.079 213.564,169.895 213.296,171.631 211.836 C 172.308 211.266,172.707 210.800,172.519 210.800 C 172.331 210.800,171.481 211.475,170.631 212.300 M316.143 212.521 C 311.476 216.329,311.208 216.576,313.219 215.214 C 315.547 213.636,318.992 210.794,318.544 210.821 C 318.355 210.832,317.274 211.597,316.143 212.521 M177.800 212.800 L 176.200 213.086 177.600 213.108 C 178.370 213.120,179.900 212.990,181.000 212.818 L 183.000 212.507 181.200 212.510 C 180.210 212.512,178.680 212.642,177.800 212.800 M238.033 212.549 C 238.125 212.631,239.910 212.797,242.000 212.918 C 244.663 213.072,245.262 213.036,244.000 212.798 C 242.190 212.457,237.722 212.271,238.033 212.549 M302.000 220.985 C 301.107 221.483,301.076 221.572,301.717 221.820 C 302.112 221.974,302.547 221.987,302.684 221.849 C 302.821 221.712,302.678 221.594,302.367 221.586 C 302.055 221.578,302.250 221.314,302.800 221.000 C 303.350 220.686,303.620 220.428,303.400 220.428 C 303.180 220.428,302.550 220.679,302.000 220.985 M0.000 310.600 L 0.000 400.000 76.867 400.000 C 119.143 400.000,153.599 399.866,153.435 399.701 C 153.270 399.537,151.485 399.274,149.468 399.116 C 143.653 398.662,134.127 397.629,128.200 396.811 C 126.660 396.599,123.960 396.227,122.200 395.984 C 116.874 395.251,113.960 394.800,106.900 393.614 C 104.728 393.249,103.137 392.967,97.700 391.984 C 96.435 391.756,94.680 391.467,93.800 391.343 C 92.920 391.219,92.029 390.956,91.820 390.759 C 91.611 390.562,90.677 390.400,89.744 390.400 C 88.811 390.400,87.936 390.220,87.800 390.000 C 87.664 389.780,86.854 389.600,86.000 389.600 C 85.146 389.600,84.336 389.420,84.200 389.200 C 84.064 388.980,83.243 388.800,82.376 388.800 C 81.509 388.800,80.800 388.620,80.800 388.400 C 80.800 388.180,80.001 388.000,79.024 388.000 C 78.047 388.000,77.136 387.820,77.000 387.600 C 76.864 387.380,76.144 387.200,75.400 387.200 C 74.656 387.200,73.936 387.020,73.800 386.800 C 73.664 386.580,72.843 386.400,71.976 386.400 C 71.109 386.400,70.400 386.220,70.400 386.000 C 70.400 385.780,69.770 385.600,69.000 385.600 C 68.230 385.600,67.600 385.420,67.600 385.200 C 67.600 384.980,66.880 384.800,66.000 384.800 C 65.120 384.800,64.400 384.620,64.400 384.400 C 64.400 384.180,63.680 384.000,62.800 384.000 C 61.920 384.000,61.200 383.820,61.200 383.600 C 61.200 383.380,60.660 383.200,60.000 383.200 C 59.067 383.200,58.800 383.022,58.800 382.400 C 58.800 381.813,58.533 381.600,57.800 381.600 C 57.067 381.600,56.800 381.387,56.800 380.800 C 56.800 380.119,57.067 380.000,58.600 380.000 C 59.590 380.000,60.400 380.180,60.400 380.400 C 60.400 380.633,61.733 380.800,63.600 380.800 C 65.360 380.800,66.800 380.961,66.800 381.158 C 66.800 381.354,68.195 381.620,69.900 381.748 C 71.605 381.876,74.170 382.152,75.600 382.361 C 77.030 382.570,79.640 382.924,81.400 383.148 C 86.898 383.848,101.635 386.445,107.200 387.694 C 112.456 388.873,124.365 388.483,130.600 386.927 C 131.920 386.598,133.630 386.188,134.400 386.016 C 135.858 385.690,139.217 384.608,140.600 384.019 C 141.040 383.831,142.480 383.279,143.800 382.792 C 147.467 381.437,157.937 376.340,158.141 375.810 C 158.276 375.458,157.708 375.434,155.860 375.715 C 151.410 376.392,141.699 375.134,127.200 372.003 C 126.430 371.837,122.740 371.045,119.000 370.245 C 115.260 369.444,111.480 368.626,110.600 368.427 C 109.720 368.228,107.920 367.854,106.600 367.596 C 99.345 366.178,93.046 364.351,89.905 362.753 C 89.523 362.559,89.026 362.400,88.801 362.400 C 88.576 362.400,87.538 362.019,86.496 361.553 C 85.453 361.088,83.970 360.431,83.200 360.095 C 78.239 357.925,70.328 353.897,63.600 350.113 C 62.236 349.346,55.845 345.479,50.200 342.005 C 43.011 337.582,29.019 327.791,31.000 328.571 C 32.302 329.083,37.312 330.297,45.200 332.011 C 49.270 332.895,53.320 333.783,54.200 333.983 C 55.080 334.183,56.970 334.552,58.400 334.804 C 61.190 335.294,63.308 335.683,66.800 336.346 C 68.010 336.575,70.170 336.959,71.600 337.199 C 73.030 337.439,75.100 337.794,76.200 337.988 C 82.793 339.153,95.259 341.000,102.000 341.810 C 104.970 342.167,108.930 342.668,110.800 342.922 C 116.952 343.761,133.209 343.357,133.831 342.350 C 133.950 342.157,134.656 342.000,135.400 342.000 C 136.144 342.000,136.864 341.820,137.000 341.600 C 137.136 341.380,137.766 341.200,138.400 341.200 C 139.034 341.200,139.664 341.020,139.800 340.800 C 139.936 340.580,140.399 340.400,140.829 340.400 C 141.259 340.400,141.923 340.241,142.305 340.047 C 142.687 339.852,143.450 339.516,144.000 339.300 C 145.754 338.611,147.379 337.917,148.095 337.553 C 148.477 337.359,149.062 337.200,149.395 337.200 C 149.728 337.200,150.000 337.054,150.000 336.875 C 150.000 336.696,150.630 336.302,151.400 336.000 C 152.170 335.698,152.800 335.381,152.800 335.297 C 152.800 334.696,151.420 334.000,150.229 334.000 C 149.443 334.000,148.800 333.820,148.800 333.600 C 148.800 333.380,148.440 333.200,148.000 333.200 C 147.560 333.200,147.200 333.020,147.200 332.800 C 147.200 332.580,146.660 332.400,146.000 332.400 C 145.340 332.400,144.800 332.220,144.800 332.000 C 144.800 331.780,144.530 331.600,144.200 331.600 C 143.870 331.600,143.600 331.808,143.600 332.061 C 143.600 332.315,143.264 332.135,142.853 331.661 C 142.442 331.188,141.722 330.800,141.253 330.800 C 140.784 330.800,140.400 330.620,140.400 330.400 C 140.400 330.180,140.040 330.000,139.600 330.000 C 139.160 330.000,138.800 329.820,138.800 329.600 C 138.800 329.380,138.260 329.200,137.600 329.200 C 136.940 329.200,136.400 329.033,136.400 328.830 C 136.400 328.626,133.835 328.359,130.700 328.238 C 127.565 328.116,123.020 327.847,120.600 327.641 C 118.180 327.435,114.670 327.150,112.800 327.007 C 110.930 326.865,109.040 326.588,108.600 326.393 C 108.160 326.198,106.900 325.953,105.800 325.848 C 102.631 325.546,101.548 325.330,96.300 323.954 C 95.365 323.709,94.240 323.372,93.800 323.205 C 93.360 323.039,91.200 322.331,89.000 321.633 C 86.800 320.935,84.550 320.168,84.000 319.929 C 83.450 319.689,82.640 319.357,82.200 319.191 C 81.760 319.025,80.297 318.419,78.950 317.845 C 77.602 317.270,76.400 316.800,76.278 316.800 C 76.156 316.800,74.889 316.260,73.463 315.600 C 72.037 314.940,70.756 314.400,70.616 314.400 C 70.267 314.400,53.965 306.325,51.000 304.683 C 49.680 303.952,46.890 302.438,44.800 301.320 C 37.695 297.516,28.329 291.938,28.598 291.669 C 28.697 291.570,29.818 291.779,31.089 292.134 C 33.574 292.829,43.502 294.803,48.400 295.576 C 50.050 295.837,52.390 296.208,53.600 296.400 C 57.355 296.997,61.252 297.546,65.000 298.007 C 66.980 298.250,69.950 298.616,71.600 298.821 C 76.779 299.464,82.068 299.979,85.800 300.205 C 87.780 300.325,90.435 300.517,91.700 300.631 C 93.600 300.804,94.000 300.732,94.000 300.220 C 94.000 299.879,93.717 299.600,93.371 299.600 C 92.511 299.600,91.788 298.805,91.460 297.496 L 91.185 296.400 93.792 296.400 C 95.264 296.400,96.400 296.574,96.400 296.800 C 96.400 297.255,124.314 297.368,130.387 296.937 C 135.035 296.607,134.044 295.694,128.400 295.107 C 126.530 294.913,123.830 294.596,122.400 294.403 C 120.970 294.211,118.270 293.850,116.400 293.602 C 114.530 293.354,111.830 292.974,110.400 292.757 C 108.970 292.540,106.720 292.266,105.400 292.148 C 104.080 292.029,102.829 291.768,102.620 291.566 C 102.411 291.365,101.297 291.200,100.144 291.200 C 98.991 291.200,97.936 291.020,97.800 290.800 C 97.664 290.580,96.494 290.400,95.200 290.400 C 93.906 290.400,92.736 290.220,92.600 290.000 C 92.464 289.780,91.553 289.600,90.576 289.600 C 89.599 289.600,88.800 289.420,88.800 289.200 C 88.800 288.978,87.733 288.800,86.400 288.800 C 85.067 288.800,84.000 288.622,84.000 288.400 C 84.000 288.180,83.537 288.000,82.971 288.000 C 81.901 288.000,80.800 287.189,80.800 286.400 C 80.800 285.738,79.761 284.800,79.029 284.800 C 78.667 284.800,78.400 284.461,78.400 284.000 C 78.400 283.418,78.133 283.200,77.424 283.200 C 76.887 283.200,76.336 283.020,76.200 282.800 C 76.064 282.580,75.511 282.400,74.971 282.400 C 74.431 282.400,73.632 282.220,73.195 282.000 C 72.758 281.780,72.042 281.420,71.605 281.200 C 71.168 280.980,70.536 280.800,70.200 280.800 C 69.607 280.800,69.184 280.634,67.305 279.662 C 66.813 279.408,66.136 279.200,65.800 279.200 C 65.464 279.200,64.877 279.040,64.495 278.844 C 64.113 278.648,62.900 278.088,61.800 277.600 C 60.700 277.112,59.487 276.552,59.105 276.356 C 58.723 276.160,58.138 276.000,57.805 276.000 C 57.472 276.000,57.200 275.820,57.200 275.600 C 57.200 275.380,56.948 275.200,56.641 275.200 C 56.333 275.200,55.055 274.660,53.800 274.000 C 52.545 273.340,51.387 272.800,51.226 272.800 C 50.816 272.800,42.518 268.319,38.854 266.118 C 30.461 261.078,26.042 257.580,29.345 258.592 C 32.282 259.492,39.439 261.318,42.400 261.923 C 43.610 262.171,45.140 262.483,45.800 262.617 C 57.859 265.064,67.362 264.969,64.434 262.429 C 63.975 262.032,63.600 261.322,63.600 260.853 C 63.600 260.384,63.420 260.000,63.200 260.000 C 62.980 260.000,62.800 259.640,62.800 259.200 C 62.800 258.760,62.620 258.400,62.400 258.400 C 62.180 258.400,62.000 257.860,62.000 257.200 C 62.000 256.267,61.822 256.000,61.200 256.000 C 60.667 256.000,60.400 255.733,60.400 255.200 C 60.400 254.760,60.220 254.400,60.000 254.400 C 59.780 254.400,59.600 253.860,59.600 253.200 C 59.600 252.540,59.420 252.000,59.200 252.000 C 58.980 252.000,58.800 251.653,58.800 251.229 C 58.800 250.804,58.487 250.144,58.104 249.761 C 57.603 249.260,57.547 249.018,57.904 248.899 C 58.749 248.617,58.454 247.572,57.200 246.400 C 56.540 245.783,56.000 244.991,56.000 244.640 C 56.000 244.228,55.652 244.000,55.024 244.000 C 54.487 244.000,53.936 243.820,53.800 243.600 C 53.664 243.380,53.124 243.200,52.600 243.200 C 52.076 243.200,51.536 243.020,51.400 242.800 C 51.264 242.580,50.713 242.400,50.176 242.400 C 49.639 242.400,49.200 242.259,49.200 242.087 C 49.200 241.915,48.345 241.529,47.300 241.229 C 46.255 240.929,45.220 240.579,45.000 240.451 C 44.780 240.323,43.790 239.923,42.800 239.561 C 39.594 238.391,30.661 234.677,24.400 231.911 C 23.410 231.473,21.970 230.846,21.200 230.516 C 20.430 230.187,19.035 229.576,18.100 229.158 C 17.165 228.741,15.635 228.062,14.700 227.650 C 13.765 227.237,11.830 226.356,10.400 225.691 C 8.970 225.026,6.540 223.916,5.000 223.225 C 3.460 222.533,1.887 221.795,1.505 221.584 C 1.123 221.373,0.628 221.200,0.405 221.200 C 0.133 221.200,0.000 250.469,0.000 310.600 M115.974 221.769 C 116.357 222.230,116.271 222.372,115.523 222.515 C 114.789 222.655,114.853 222.702,115.833 222.746 C 117.384 222.814,117.791 222.433,116.894 221.752 C 115.966 221.048,115.385 221.058,115.974 221.769 M304.200 222.400 C 304.640 222.589,305.450 222.738,306.000 222.732 L 307.000 222.720 306.000 222.400 C 305.450 222.224,304.640 222.074,304.200 222.068 L 303.400 222.056 304.200 222.400 M111.400 223.200 L 110.200 223.505 111.400 223.525 C 112.060 223.535,112.960 223.389,113.400 223.200 L 114.200 222.856 113.400 222.875 C 112.960 222.886,112.060 223.032,111.400 223.200 M308.400 223.188 C 308.730 223.408,309.615 223.591,310.367 223.594 C 312.160 223.602,311.841 223.375,309.600 223.050 C 308.342 222.867,307.981 222.909,308.400 223.188 M107.200 224.000 C 105.843 224.286,105.837 224.295,107.000 224.307 C 107.660 224.315,108.650 224.176,109.200 224.000 C 110.512 223.580,109.196 223.580,107.200 224.000 M312.600 224.000 C 313.040 224.189,313.850 224.338,314.400 224.332 L 315.400 224.320 314.400 224.000 C 313.850 223.824,313.040 223.674,312.600 223.668 L 311.800 223.656 312.600 224.000 M397.600 231.650 C 394.868 232.915,390.875 234.570,383.600 237.455 C 375.713 240.582,375.199 240.792,374.305 241.247 C 373.923 241.441,373.336 241.600,373.000 241.600 C 372.664 241.600,372.032 241.780,371.595 242.000 C 371.158 242.220,370.442 242.580,370.005 242.800 C 369.568 243.020,368.859 243.200,368.429 243.200 C 367.999 243.200,367.536 243.380,367.400 243.600 C 367.264 243.820,366.724 244.000,366.200 244.000 C 365.676 244.000,365.136 244.180,365.000 244.400 C 364.864 244.620,364.401 244.800,363.971 244.800 C 363.541 244.800,362.877 244.958,362.495 245.151 C 361.367 245.720,359.004 246.400,358.152 246.400 C 357.716 246.400,357.189 246.563,356.980 246.761 C 356.374 247.338,353.093 247.660,345.853 247.855 C 338.919 248.042,338.000 248.267,338.000 249.771 C 338.000 250.117,337.820 250.400,337.600 250.400 C 337.380 250.400,337.200 250.760,337.200 251.200 C 337.200 251.640,337.020 252.000,336.800 252.000 C 336.580 252.000,336.400 252.540,336.400 253.200 C 336.400 253.860,336.220 254.400,336.000 254.400 C 335.780 254.400,335.600 254.720,335.600 255.112 C 335.600 255.503,335.240 256.083,334.800 256.400 C 334.360 256.717,334.000 257.297,334.000 257.688 C 334.000 258.080,333.820 258.400,333.600 258.400 C 333.380 258.400,333.200 258.850,333.200 259.400 C 333.200 260.133,332.987 260.400,332.400 260.400 C 331.778 260.400,331.600 260.667,331.600 261.600 C 331.600 262.260,331.420 262.800,331.200 262.800 C 330.980 262.800,330.800 263.134,330.800 263.542 C 330.800 264.985,347.544 265.572,356.233 264.434 C 365.279 263.250,372.300 261.870,380.075 259.748 C 385.119 258.372,385.097 258.465,379.505 262.200 C 376.705 264.070,374.304 265.600,374.169 265.600 C 374.034 265.600,373.446 265.932,372.862 266.338 C 370.856 267.733,359.468 273.645,355.400 275.403 C 354.520 275.784,353.260 276.329,352.600 276.615 C 348.284 278.487,337.477 282.366,334.200 283.220 C 327.277 285.024,325.000 285.569,322.600 285.995 C 321.060 286.269,319.278 286.652,318.640 286.846 C 318.002 287.041,316.787 287.200,315.940 287.200 C 314.818 287.200,314.400 287.368,314.400 287.818 C 314.400 288.887,312.535 290.400,311.218 290.400 C 310.548 290.400,310.000 290.580,310.000 290.800 C 310.000 291.022,308.933 291.200,307.600 291.200 C 306.267 291.200,305.200 291.378,305.200 291.600 C 305.200 291.826,304.067 292.000,302.600 292.000 C 301.133 292.000,300.000 292.174,300.000 292.400 C 300.000 292.629,298.800 292.800,297.200 292.800 C 295.660 292.800,294.400 292.961,294.400 293.158 C 294.400 293.354,293.005 293.620,291.300 293.748 C 289.595 293.876,286.940 294.164,285.400 294.388 C 283.860 294.613,281.250 294.947,279.600 295.131 C 277.950 295.315,276.060 295.704,275.400 295.995 L 274.200 296.525 275.800 296.839 C 276.680 297.012,283.655 297.164,291.300 297.177 C 300.285 297.192,305.200 297.341,305.200 297.600 C 305.200 297.820,304.840 298.000,304.400 298.000 C 303.945 298.000,303.600 298.267,303.600 298.618 C 303.600 298.958,303.158 299.678,302.618 300.218 C 302.078 300.758,301.358 301.200,301.018 301.200 C 300.678 301.200,300.400 301.380,300.400 301.600 C 300.400 302.118,306.909 302.122,312.400 301.608 C 314.710 301.392,320.290 300.935,324.800 300.594 C 329.310 300.253,334.396 299.803,336.101 299.594 C 337.807 299.386,340.731 299.028,342.600 298.800 C 350.003 297.895,352.699 297.546,355.000 297.195 C 356.320 296.993,358.750 296.623,360.400 296.373 C 364.684 295.723,373.714 294.073,377.000 293.340 C 383.870 291.807,383.385 292.484,373.800 297.801 C 364.007 303.233,357.969 306.432,351.600 309.564 C 348.190 311.241,344.320 313.094,343.000 313.682 C 341.680 314.270,339.610 315.196,338.400 315.740 C 335.384 317.096,328.189 319.949,326.000 320.658 C 325.010 320.978,323.840 321.392,323.400 321.577 C 319.841 323.072,310.940 325.287,305.400 326.054 C 294.835 327.518,286.466 328.079,272.500 328.259 C 264.372 328.364,259.200 328.580,259.200 328.815 C 259.200 329.027,258.840 329.200,258.400 329.200 C 257.960 329.200,257.600 329.380,257.600 329.600 C 257.600 329.820,257.060 330.000,256.400 330.000 C 255.740 330.000,255.200 330.180,255.200 330.400 C 255.200 330.620,254.840 330.800,254.400 330.800 C 250.177 330.800,265.068 338.782,273.800 341.199 C 282.063 343.486,283.987 343.717,292.800 343.480 C 297.090 343.365,301.950 343.086,303.600 342.860 C 305.250 342.634,310.020 341.991,314.200 341.431 C 318.380 340.870,322.880 340.242,324.200 340.034 C 325.520 339.827,327.950 339.451,329.600 339.198 C 331.250 338.946,333.590 338.573,334.800 338.371 C 342.367 337.103,344.545 336.721,348.200 336.020 C 349.520 335.767,351.590 335.401,352.800 335.206 C 354.010 335.011,355.900 334.659,357.000 334.424 C 358.100 334.189,360.350 333.737,362.000 333.420 C 365.662 332.716,369.881 331.787,374.000 330.779 C 374.770 330.590,375.940 330.324,376.600 330.188 C 377.260 330.051,378.181 329.756,378.647 329.530 C 381.351 328.224,380.318 329.706,376.925 332.000 C 374.810 333.430,371.900 335.464,370.458 336.520 C 369.016 337.576,367.267 338.710,366.572 339.040 C 365.877 339.370,364.931 339.991,364.471 340.420 C 364.010 340.849,363.526 341.200,363.395 341.200 C 363.264 341.200,362.096 341.920,360.800 342.800 C 359.504 343.680,358.254 344.400,358.022 344.400 C 357.790 344.400,357.599 344.535,357.597 344.700 C 357.595 344.865,357.190 345.198,356.697 345.439 C 356.204 345.681,352.920 347.542,349.400 349.575 C 340.791 354.546,331.017 359.440,324.500 362.041 C 324.005 362.238,323.195 362.570,322.700 362.779 C 321.900 363.115,316.227 364.986,313.000 365.977 C 312.340 366.180,309.910 366.717,307.600 367.170 C 302.278 368.213,299.288 368.843,294.400 369.952 C 273.708 374.646,266.508 375.764,258.436 375.534 C 255.446 375.449,253.315 375.443,253.700 375.519 C 254.085 375.596,254.400 375.795,254.400 375.963 C 254.400 376.130,257.055 377.539,260.300 379.095 C 278.868 387.997,292.367 390.376,307.400 387.397 C 313.815 386.126,314.644 385.985,317.111 385.739 C 318.492 385.601,319.717 385.334,319.834 385.144 C 319.951 384.955,321.016 384.800,322.200 384.800 C 323.384 384.800,324.464 384.620,324.600 384.400 C 324.736 384.180,325.816 384.000,327.000 384.000 C 328.184 384.000,329.264 383.820,329.400 383.600 C 329.536 383.380,330.987 383.200,332.624 383.200 C 334.341 383.200,335.600 383.031,335.600 382.800 C 335.600 382.580,335.780 382.400,336.000 382.400 C 336.220 382.400,336.400 382.760,336.400 383.200 C 336.400 383.733,336.133 384.000,335.600 384.000 C 335.160 384.000,334.800 384.180,334.800 384.400 C 334.800 384.620,334.440 384.800,334.000 384.800 C 333.560 384.800,333.200 384.980,333.200 385.200 C 333.200 385.420,332.880 385.600,332.488 385.600 C 332.097 385.600,331.517 385.960,331.200 386.400 C 330.883 386.840,330.375 387.200,330.072 387.200 C 329.769 387.200,329.017 387.740,328.400 388.400 C 327.507 389.356,326.945 389.600,325.640 389.600 C 324.738 389.600,324.000 389.780,324.000 390.000 C 324.000 390.220,323.100 390.400,322.000 390.400 C 320.900 390.400,320.000 390.580,320.000 390.800 C 320.000 391.020,319.201 391.200,318.224 391.200 C 317.247 391.200,316.336 391.380,316.200 391.600 C 316.064 391.820,315.063 392.000,313.976 392.000 C 312.889 392.000,312.000 392.180,312.000 392.400 C 312.000 392.620,311.010 392.800,309.800 392.800 C 308.590 392.800,307.600 392.964,307.600 393.164 C 307.600 393.365,306.565 393.625,305.300 393.742 C 304.035 393.860,301.830 394.151,300.400 394.390 C 295.838 395.151,291.883 395.732,284.000 396.798 C 278.132 397.591,262.785 399.198,261.000 399.205 C 260.120 399.209,259.130 399.387,258.800 399.600 C 258.411 399.851,283.178 399.990,329.100 399.994 L 400.000 400.000 400.000 315.400 C 400.000 268.870,399.865 230.804,399.700 230.809 C 399.535 230.814,398.590 231.192,397.600 231.650 " stroke="none" fill="#509ab8" fill-rule="evenodd"></path><path id="path1" d="M134.900 115.087 C 135.505 115.178,136.495 115.178,137.100 115.087 C 137.705 114.995,137.210 114.920,136.000 114.920 C 134.790 114.920,134.295 114.995,134.900 115.087 M280.900 115.076 C 281.285 115.176,281.915 115.176,282.300 115.076 C 282.685 114.975,282.370 114.893,281.600 114.893 C 280.830 114.893,280.515 114.975,280.900 115.076 M126.500 115.876 C 126.885 115.976,127.515 115.976,127.900 115.876 C 128.285 115.775,127.970 115.693,127.200 115.693 C 126.430 115.693,126.115 115.775,126.500 115.876 M143.300 115.876 C 143.685 115.976,144.315 115.976,144.700 115.876 C 145.085 115.775,144.770 115.693,144.000 115.693 C 143.230 115.693,142.915 115.775,143.300 115.876 M272.900 115.876 C 273.285 115.976,273.915 115.976,274.300 115.876 C 274.685 115.775,274.370 115.693,273.600 115.693 C 272.830 115.693,272.515 115.775,272.900 115.876 M289.105 115.883 C 289.602 115.979,290.322 115.975,290.705 115.875 C 291.087 115.775,290.680 115.696,289.800 115.701 C 288.920 115.705,288.607 115.787,289.105 115.883 M96.585 131.300 L 94.600 133.400 96.700 131.415 C 97.855 130.323,98.800 129.378,98.800 129.315 C 98.800 129.017,98.429 129.349,96.585 131.300 M174.600 131.600 C 175.906 132.920,177.065 134.000,177.175 134.000 C 177.285 134.000,176.306 132.920,175.000 131.600 C 173.694 130.280,172.535 129.200,172.425 129.200 C 172.315 129.200,173.294 130.280,174.600 131.600 M242.981 130.900 L 241.400 132.600 243.100 131.019 C 244.681 129.548,244.984 129.200,244.681 129.200 C 244.616 129.200,243.851 129.965,242.981 130.900 M320.417 131.415 C 321.617 132.743,322.682 133.771,322.781 133.700 C 322.881 133.629,321.898 132.543,320.598 131.286 L 318.233 129.000 320.417 131.415 M131.900 156.293 C 132.835 156.377,134.365 156.377,135.300 156.293 C 136.235 156.209,135.470 156.140,133.600 156.140 C 131.730 156.140,130.965 156.209,131.900 156.293 M277.105 156.283 C 277.602 156.379,278.322 156.375,278.705 156.275 C 279.087 156.175,278.680 156.096,277.800 156.101 C 276.920 156.105,276.607 156.187,277.105 156.283 M280.705 156.283 C 281.202 156.379,281.922 156.375,282.305 156.275 C 282.687 156.175,282.280 156.096,281.400 156.101 C 280.520 156.105,280.207 156.187,280.705 156.283 M138.887 157.300 C 139.701 158.048,141.253 158.880,141.456 158.677 C 141.554 158.579,140.986 158.117,140.194 157.650 C 138.569 156.691,138.082 156.561,138.887 157.300 M288.000 159.045 C 290.109 160.781,291.925 162.848,292.618 164.300 C 293.273 165.675,293.751 166.083,293.320 164.900 C 292.556 162.801,290.071 159.990,287.731 158.576 C 286.865 158.053,286.929 158.163,288.000 159.045 M142.000 158.862 C 142.000 159.185,145.689 162.845,145.850 162.683 C 145.923 162.611,145.086 161.669,143.991 160.591 C 142.896 159.512,142.000 158.735,142.000 158.862 M268.778 160.700 L 267.400 162.200 268.900 160.822 C 270.296 159.538,270.584 159.200,270.278 159.200 C 270.212 159.200,269.537 159.875,268.778 160.700 M81.301 161.800 C 81.305 162.680,81.387 162.993,81.483 162.495 C 81.579 161.998,81.575 161.278,81.475 160.895 C 81.375 160.513,81.296 160.920,81.301 161.800 M335.709 162.400 C 335.709 163.390,335.787 163.795,335.882 163.300 C 335.978 162.805,335.978 161.995,335.882 161.500 C 335.787 161.005,335.709 161.410,335.709 162.400 M293.606 166.633 C 293.609 167.055,293.795 167.670,294.018 168.000 C 294.315 168.438,294.352 168.276,294.156 167.400 C 293.827 165.929,293.598 165.610,293.606 166.633 M147.628 167.476 C 147.613 167.958,147.780 168.464,148.000 168.600 C 148.473 168.892,148.473 168.501,148.000 167.400 C 147.669 166.629,147.655 166.631,147.628 167.476 M118.520 171.200 C 118.520 172.410,118.595 172.905,118.687 172.300 C 118.778 171.695,118.778 170.705,118.687 170.100 C 118.595 169.495,118.520 169.990,118.520 171.200 M148.520 171.200 C 148.520 172.410,148.595 172.905,148.687 172.300 C 148.778 171.695,148.778 170.705,148.687 170.100 C 148.595 169.495,148.520 169.990,148.520 171.200 M335.709 177.600 C 335.709 178.590,335.787 178.995,335.882 178.500 C 335.978 178.005,335.978 177.195,335.882 176.700 C 335.787 176.205,335.709 176.610,335.709 177.600 M81.301 177.800 C 81.305 178.680,81.387 178.993,81.483 178.495 C 81.579 177.998,81.575 177.278,81.475 176.895 C 81.375 176.513,81.296 176.920,81.301 177.800 M131.568 178.300 C 131.759 179.681,131.787 179.709,131.919 178.651 C 131.998 178.019,131.905 177.345,131.712 177.152 C 131.510 176.950,131.449 177.440,131.568 178.300 M268.053 178.500 C 268.024 179.105,267.775 179.605,267.500 179.612 C 267.225 179.619,267.329 179.815,267.730 180.049 C 268.653 180.585,268.694 180.504,268.371 178.800 C 268.136 177.564,268.099 177.529,268.053 178.500 M120.800 179.349 C 120.800 179.389,121.160 179.730,121.600 180.107 C 122.213 180.632,122.400 180.663,122.400 180.243 C 122.400 179.941,122.040 179.599,121.600 179.484 C 121.160 179.369,120.800 179.308,120.800 179.349 M289.978 181.900 L 288.600 183.400 290.100 182.022 C 291.496 180.738,291.784 180.400,291.478 180.400 C 291.412 180.400,290.737 181.075,289.978 181.900 M-0.000 213.095 L -0.000 221.005 1.300 221.560 C 2.805 222.202,6.669 223.956,10.400 225.691 C 11.830 226.356,13.765 227.237,14.700 227.650 C 15.635 228.062,17.165 228.741,18.100 229.158 C 19.035 229.576,20.430 230.187,21.200 230.516 C 21.970 230.846,23.410 231.473,24.400 231.911 C 30.661 234.677,39.594 238.391,42.800 239.561 C 43.790 239.923,44.780 240.323,45.000 240.451 C 45.220 240.579,46.255 240.929,47.300 241.229 C 48.345 241.529,49.200 241.915,49.200 242.087 C 49.200 242.259,49.639 242.400,50.176 242.400 C 50.713 242.400,51.264 242.580,51.400 242.800 C 51.536 243.020,52.076 243.200,52.600 243.200 C 53.124 243.200,53.664 243.380,53.800 243.600 C 53.936 243.820,54.487 244.000,55.024 244.000 C 55.652 244.000,56.000 244.228,56.000 244.640 C 56.000 244.991,56.540 245.783,57.200 246.400 C 58.454 247.572,58.749 248.617,57.904 248.899 C 57.547 249.018,57.603 249.260,58.104 249.761 C 58.487 250.144,58.800 250.804,58.800 251.229 C 58.800 251.653,58.980 252.000,59.200 252.000 C 59.420 252.000,59.600 252.540,59.600 253.200 C 59.600 253.860,59.780 254.400,60.000 254.400 C 60.220 254.400,60.400 254.760,60.400 255.200 C 60.400 255.733,60.667 256.000,61.200 256.000 C 61.822 256.000,62.000 256.267,62.000 257.200 C 62.000 257.860,62.180 258.400,62.400 258.400 C 62.620 258.400,62.800 258.760,62.800 259.200 C 62.800 259.640,62.980 260.000,63.200 260.000 C 63.420 260.000,63.600 260.384,63.600 260.853 C 63.600 261.322,63.975 262.032,64.434 262.429 C 67.362 264.969,57.859 265.064,45.800 262.617 C 45.140 262.483,43.610 262.171,42.400 261.923 C 39.439 261.318,32.282 259.492,29.345 258.592 C 26.042 257.580,30.461 261.078,38.854 266.118 C 42.518 268.319,50.816 272.800,51.226 272.800 C 51.387 272.800,52.545 273.340,53.800 274.000 C 55.055 274.660,56.333 275.200,56.641 275.200 C 56.948 275.200,57.200 275.380,57.200 275.600 C 57.200 275.820,57.472 276.000,57.805 276.000 C 58.138 276.000,58.723 276.160,59.105 276.356 C 59.487 276.552,60.700 277.112,61.800 277.600 C 62.900 278.088,64.113 278.648,64.495 278.844 C 64.877 279.040,65.464 279.200,65.800 279.200 C 66.136 279.200,66.813 279.408,67.305 279.662 C 69.184 280.634,69.607 280.800,70.200 280.800 C 70.793 280.800,71.216 280.966,73.095 281.938 C 73.587 282.192,74.431 282.400,74.971 282.400 C 75.511 282.400,76.064 282.580,76.200 282.800 C 76.336 283.020,76.887 283.200,77.424 283.200 C 78.133 283.200,78.400 283.418,78.400 284.000 C 78.400 284.461,78.667 284.800,79.029 284.800 C 79.761 284.800,80.800 285.738,80.800 286.400 C 80.800 287.189,81.901 288.000,82.971 288.000 C 83.537 288.000,84.000 288.180,84.000 288.400 C 84.000 288.622,85.067 288.800,86.400 288.800 C 87.733 288.800,88.800 288.978,88.800 289.200 C 88.800 289.420,89.599 289.600,90.576 289.600 C 91.553 289.600,92.464 289.780,92.600 290.000 C 92.736 290.220,93.906 290.400,95.200 290.400 C 96.494 290.400,97.664 290.580,97.800 290.800 C 97.936 291.020,98.991 291.200,100.144 291.200 C 101.297 291.200,102.411 291.365,102.620 291.566 C 102.829 291.768,104.080 292.029,105.400 292.148 C 106.720 292.266,108.970 292.540,110.400 292.757 C 111.830 292.974,114.530 293.354,116.400 293.602 C 118.270 293.850,120.970 294.211,122.400 294.403 C 123.830 294.596,126.530 294.913,128.400 295.107 C 134.044 295.694,135.035 296.607,130.387 296.937 C 124.314 297.368,96.400 297.255,96.400 296.800 C 96.400 296.574,95.264 296.400,93.792 296.400 L 91.185 296.400 91.460 297.496 C 91.788 298.805,92.511 299.600,93.371 299.600 C 93.717 299.600,94.000 299.879,94.000 300.220 C 94.000 300.732,93.600 300.804,91.700 300.631 C 90.435 300.517,87.780 300.325,85.800 300.205 C 80.930 299.910,76.951 299.488,64.600 297.954 C 61.075 297.516,56.982 296.938,53.600 296.400 C 52.390 296.208,50.050 295.837,48.400 295.576 C 43.502 294.803,33.574 292.829,31.089 292.134 C 29.818 291.779,28.697 291.570,28.598 291.669 C 28.329 291.938,37.695 297.516,44.800 301.320 C 46.890 302.438,49.680 303.952,51.000 304.683 C 53.965 306.325,70.267 314.400,70.616 314.400 C 70.756 314.400,72.037 314.940,73.463 315.600 C 74.889 316.260,76.156 316.800,76.278 316.800 C 76.400 316.800,77.602 317.270,78.950 317.845 C 80.297 318.419,81.760 319.025,82.200 319.191 C 82.640 319.357,83.450 319.689,84.000 319.929 C 84.550 320.168,86.800 320.935,89.000 321.633 C 91.200 322.331,93.360 323.039,93.800 323.205 C 94.240 323.372,95.320 323.694,96.200 323.921 C 97.080 324.148,98.520 324.521,99.400 324.751 C 101.498 325.297,103.349 325.614,105.800 325.848 C 106.900 325.953,108.160 326.198,108.600 326.393 C 109.040 326.588,110.930 326.865,112.800 327.007 C 114.670 327.150,118.180 327.435,120.600 327.641 C 123.020 327.847,127.565 328.116,130.700 328.238 C 133.835 328.359,136.400 328.626,136.400 328.830 C 136.400 329.033,136.940 329.200,137.600 329.200 C 138.260 329.200,138.800 329.380,138.800 329.600 C 138.800 329.820,139.160 330.000,139.600 330.000 C 140.040 330.000,140.400 330.180,140.400 330.400 C 140.400 330.620,140.784 330.800,141.253 330.800 C 141.722 330.800,142.442 331.188,142.853 331.661 C 143.264 332.135,143.600 332.315,143.600 332.061 C 143.600 331.808,143.870 331.600,144.200 331.600 C 144.530 331.600,144.800 331.780,144.800 332.000 C 144.800 332.220,145.340 332.400,146.000 332.400 C 146.660 332.400,147.200 332.580,147.200 332.800 C 147.200 333.020,147.560 333.200,148.000 333.200 C 148.440 333.200,148.800 333.380,148.800 333.600 C 148.800 333.820,149.443 334.000,150.229 334.000 C 151.420 334.000,152.800 334.696,152.800 335.297 C 152.800 335.381,152.170 335.698,151.400 336.000 C 150.630 336.302,150.000 336.696,150.000 336.875 C 150.000 337.054,149.728 337.200,149.395 337.200 C 149.062 337.200,148.477 337.359,148.095 337.553 C 147.713 337.748,146.950 338.084,146.400 338.300 C 144.646 338.989,143.021 339.683,142.305 340.047 C 141.923 340.241,141.259 340.400,140.829 340.400 C 140.399 340.400,139.936 340.580,139.800 340.800 C 139.664 341.020,139.034 341.200,138.400 341.200 C 137.766 341.200,137.136 341.380,137.000 341.600 C 136.864 341.820,136.144 342.000,135.400 342.000 C 134.656 342.000,133.950 342.157,133.831 342.350 C 133.209 343.357,116.952 343.761,110.800 342.922 C 108.930 342.668,104.970 342.167,102.000 341.810 C 95.259 341.000,82.793 339.153,76.200 337.988 C 75.100 337.794,73.030 337.439,71.600 337.199 C 70.170 336.959,68.010 336.575,66.800 336.346 C 63.308 335.683,61.190 335.294,58.400 334.804 C 56.970 334.552,55.080 334.183,54.200 333.983 C 53.320 333.783,49.270 332.895,45.200 332.011 C 37.312 330.297,32.302 329.083,31.000 328.571 C 29.019 327.791,43.011 337.582,50.200 342.005 C 55.845 345.479,62.236 349.346,63.600 350.113 C 70.328 353.897,78.239 357.925,83.200 360.095 C 83.970 360.431,85.453 361.088,86.496 361.553 C 87.538 362.019,88.576 362.400,88.801 362.400 C 89.026 362.400,89.523 362.559,89.905 362.753 C 93.046 364.351,99.345 366.178,106.600 367.596 C 107.920 367.854,109.720 368.228,110.600 368.427 C 111.480 368.626,115.260 369.444,119.000 370.245 C 122.740 371.045,126.430 371.837,127.200 372.003 C 141.699 375.134,151.410 376.392,155.860 375.715 C 157.708 375.434,158.276 375.458,158.141 375.810 C 157.937 376.340,147.467 381.437,143.800 382.792 C 142.480 383.279,141.040 383.831,140.600 384.019 C 139.217 384.608,135.858 385.690,134.400 386.016 C 133.630 386.188,131.920 386.598,130.600 386.927 C 124.365 388.483,112.456 388.873,107.200 387.694 C 101.635 386.445,86.898 383.848,81.400 383.148 C 79.640 382.924,77.030 382.570,75.600 382.361 C 74.170 382.152,71.605 381.876,69.900 381.748 C 68.195 381.620,66.800 381.354,66.800 381.158 C 66.800 380.961,65.360 380.800,63.600 380.800 C 61.733 380.800,60.400 380.633,60.400 380.400 C 60.400 380.180,59.590 380.000,58.600 380.000 C 57.067 380.000,56.800 380.119,56.800 380.800 C 56.800 381.387,57.067 381.600,57.800 381.600 C 58.533 381.600,58.800 381.813,58.800 382.400 C 58.800 383.022,59.067 383.200,60.000 383.200 C 60.660 383.200,61.200 383.380,61.200 383.600 C 61.200 383.820,61.920 384.000,62.800 384.000 C 63.680 384.000,64.400 384.180,64.400 384.400 C 64.400 384.620,65.120 384.800,66.000 384.800 C 66.880 384.800,67.600 384.980,67.600 385.200 C 67.600 385.420,68.230 385.600,69.000 385.600 C 69.770 385.600,70.400 385.780,70.400 386.000 C 70.400 386.220,71.109 386.400,71.976 386.400 C 72.843 386.400,73.664 386.580,73.800 386.800 C 73.936 387.020,74.656 387.200,75.400 387.200 C 76.144 387.200,76.864 387.380,77.000 387.600 C 77.136 387.820,78.047 388.000,79.024 388.000 C 80.001 388.000,80.800 388.180,80.800 388.400 C 80.800 388.620,81.509 388.800,82.376 388.800 C 83.243 388.800,84.064 388.980,84.200 389.200 C 84.336 389.420,85.146 389.600,86.000 389.600 C 86.854 389.600,87.664 389.780,87.800 390.000 C 87.936 390.220,88.811 390.400,89.744 390.400 C 90.677 390.400,91.611 390.562,91.820 390.759 C 92.029 390.956,92.920 391.219,93.800 391.343 C 94.680 391.467,96.435 391.756,97.700 391.984 C 103.137 392.967,104.728 393.249,106.900 393.614 C 113.960 394.800,116.874 395.251,122.200 395.984 C 123.960 396.227,126.660 396.599,128.200 396.811 C 131.633 397.285,136.503 397.858,141.800 398.412 C 144.000 398.641,147.510 399.026,149.600 399.267 C 154.595 399.842,256.801 400.198,258.800 399.647 C 259.570 399.435,263.530 398.946,267.600 398.561 C 281.111 397.283,289.338 396.237,300.400 394.390 C 301.830 394.151,304.035 393.860,305.300 393.742 C 306.565 393.625,307.600 393.365,307.600 393.164 C 307.600 392.964,308.590 392.800,309.800 392.800 C 311.010 392.800,312.000 392.620,312.000 392.400 C 312.000 392.180,312.889 392.000,313.976 392.000 C 315.063 392.000,316.064 391.820,316.200 391.600 C 316.336 391.380,317.247 391.200,318.224 391.200 C 319.201 391.200,320.000 391.020,320.000 390.800 C 320.000 390.580,320.900 390.400,322.000 390.400 C 323.100 390.400,324.000 390.220,324.000 390.000 C 324.000 389.780,324.738 389.600,325.640 389.600 C 326.945 389.600,327.507 389.356,328.400 388.400 C 329.017 387.740,329.769 387.200,330.072 387.200 C 330.375 387.200,330.883 386.840,331.200 386.400 C 331.517 385.960,332.097 385.600,332.488 385.600 C 332.880 385.600,333.200 385.420,333.200 385.200 C 333.200 384.980,333.560 384.800,334.000 384.800 C 334.440 384.800,334.800 384.620,334.800 384.400 C 334.800 384.180,335.160 384.000,335.600 384.000 C 336.133 384.000,336.400 383.733,336.400 383.200 C 336.400 382.760,336.220 382.400,336.000 382.400 C 335.780 382.400,335.600 382.580,335.600 382.800 C 335.600 383.031,334.341 383.200,332.624 383.200 C 330.987 383.200,329.536 383.380,329.400 383.600 C 329.264 383.820,328.184 384.000,327.000 384.000 C 325.816 384.000,324.736 384.180,324.600 384.400 C 324.464 384.620,323.384 384.800,322.200 384.800 C 321.016 384.800,319.951 384.955,319.834 385.144 C 319.717 385.334,318.492 385.601,317.111 385.739 C 314.644 385.985,313.815 386.126,307.400 387.397 C 292.367 390.376,278.868 387.997,260.300 379.095 C 257.055 377.539,254.400 376.130,254.400 375.963 C 254.400 375.795,254.085 375.596,253.700 375.519 C 253.315 375.443,255.446 375.449,258.436 375.534 C 266.551 375.765,272.699 374.813,294.300 369.980 C 295.235 369.771,296.765 369.429,297.700 369.220 C 300.574 368.576,303.222 368.028,307.600 367.170 C 309.910 366.717,312.340 366.180,313.000 365.977 C 316.227 364.986,321.900 363.115,322.700 362.779 C 323.195 362.570,324.005 362.238,324.500 362.041 C 331.017 359.440,340.791 354.546,349.400 349.575 C 352.920 347.542,356.204 345.681,356.697 345.439 C 357.190 345.198,357.595 344.865,357.597 344.700 C 357.599 344.535,357.790 344.400,358.022 344.400 C 358.254 344.400,359.504 343.680,360.800 342.800 C 362.096 341.920,363.264 341.200,363.395 341.200 C 363.526 341.200,364.010 340.849,364.471 340.420 C 364.931 339.991,365.877 339.370,366.572 339.040 C 367.267 338.710,369.016 337.576,370.458 336.520 C 371.900 335.464,374.810 333.430,376.925 332.000 C 380.318 329.706,381.351 328.224,378.647 329.530 C 378.181 329.756,377.260 330.051,376.600 330.187 C 375.367 330.441,372.870 331.018,370.400 331.620 C 368.044 332.194,365.144 332.815,362.000 333.420 C 360.350 333.737,358.100 334.189,357.000 334.424 C 355.900 334.659,354.010 335.011,352.800 335.206 C 351.590 335.401,349.520 335.767,348.200 336.020 C 344.545 336.721,342.367 337.103,334.800 338.371 C 333.590 338.573,331.250 338.946,329.600 339.198 C 327.950 339.451,325.520 339.827,324.200 340.034 C 322.880 340.242,318.380 340.870,314.200 341.431 C 310.020 341.991,305.250 342.634,303.600 342.860 C 301.950 343.086,297.090 343.365,292.800 343.480 C 283.987 343.717,282.063 343.486,273.800 341.199 C 265.068 338.782,250.177 330.800,254.400 330.800 C 254.840 330.800,255.200 330.620,255.200 330.400 C 255.200 330.180,255.740 330.000,256.400 330.000 C 257.060 330.000,257.600 329.820,257.600 329.600 C 257.600 329.380,257.960 329.200,258.400 329.200 C 258.840 329.200,259.200 329.027,259.200 328.815 C 259.200 328.580,264.372 328.364,272.500 328.259 C 286.466 328.079,294.835 327.518,305.400 326.054 C 310.940 325.287,319.841 323.072,323.400 321.577 C 323.840 321.392,325.010 320.978,326.000 320.658 C 328.189 319.949,335.384 317.096,338.400 315.740 C 339.610 315.196,341.680 314.270,343.000 313.682 C 349.154 310.940,360.546 305.125,370.100 299.849 C 383.792 292.288,384.435 291.681,377.000 293.340 C 373.714 294.073,364.684 295.723,360.400 296.373 C 358.750 296.623,356.320 296.993,355.000 297.195 C 352.699 297.546,350.003 297.895,342.600 298.800 C 340.731 299.028,337.807 299.386,336.101 299.594 C 334.396 299.803,329.310 300.253,324.800 300.594 C 320.290 300.935,314.710 301.392,312.400 301.608 C 306.909 302.122,300.400 302.118,300.400 301.600 C 300.400 301.380,300.678 301.200,301.018 301.200 C 301.818 301.200,303.600 299.418,303.600 298.618 C 303.600 298.267,303.945 298.000,304.400 298.000 C 304.840 298.000,305.200 297.820,305.200 297.600 C 305.200 297.341,300.285 297.192,291.300 297.177 C 283.655 297.164,276.680 297.012,275.800 296.839 L 274.200 296.525 275.400 295.995 C 276.060 295.704,277.950 295.315,279.600 295.131 C 281.250 294.947,283.860 294.613,285.400 294.388 C 286.940 294.164,289.595 293.876,291.300 293.748 C 293.005 293.620,294.400 293.354,294.400 293.158 C 294.400 292.961,295.660 292.800,297.200 292.800 C 298.800 292.800,300.000 292.629,300.000 292.400 C 300.000 292.174,301.133 292.000,302.600 292.000 C 304.067 292.000,305.200 291.826,305.200 291.600 C 305.200 291.378,306.267 291.200,307.600 291.200 C 308.933 291.200,310.000 291.022,310.000 290.800 C 310.000 290.580,310.548 290.400,311.218 290.400 C 312.535 290.400,314.400 288.887,314.400 287.818 C 314.400 287.368,314.818 287.200,315.940 287.200 C 316.787 287.200,318.002 287.041,318.640 286.846 C 319.278 286.652,321.060 286.269,322.600 285.995 C 325.000 285.569,327.277 285.024,334.200 283.220 C 337.538 282.350,348.420 278.437,352.700 276.568 C 353.415 276.255,354.675 275.710,355.500 275.356 C 359.396 273.683,370.870 267.724,372.862 266.338 C 373.446 265.932,374.034 265.600,374.169 265.600 C 374.304 265.600,376.705 264.070,379.505 262.200 C 385.097 258.465,385.119 258.372,380.075 259.748 C 372.300 261.870,365.279 263.250,356.233 264.434 C 347.544 265.572,330.800 264.985,330.800 263.542 C 330.800 263.134,330.980 262.800,331.200 262.800 C 331.420 262.800,331.600 262.260,331.600 261.600 C 331.600 260.667,331.778 260.400,332.400 260.400 C 332.987 260.400,333.200 260.133,333.200 259.400 C 333.200 258.850,333.380 258.400,333.600 258.400 C 333.820 258.400,334.000 258.080,334.000 257.688 C 334.000 257.297,334.360 256.717,334.800 256.400 C 335.240 256.083,335.600 255.503,335.600 255.112 C 335.600 254.720,335.780 254.400,336.000 254.400 C 336.220 254.400,336.400 253.860,336.400 253.200 C 336.400 252.540,336.580 252.000,336.800 252.000 C 337.020 252.000,337.200 251.640,337.200 251.200 C 337.200 250.760,337.380 250.400,337.600 250.400 C 337.820 250.400,338.000 250.117,338.000 249.771 C 338.000 248.267,338.919 248.042,345.853 247.855 C 353.093 247.660,356.374 247.338,356.980 246.761 C 357.189 246.563,357.716 246.400,358.152 246.400 C 359.004 246.400,361.367 245.720,362.495 245.151 C 362.877 244.958,363.541 244.800,363.971 244.800 C 364.401 244.800,364.864 244.620,365.000 244.400 C 365.136 244.180,365.676 244.000,366.200 244.000 C 366.724 244.000,367.264 243.820,367.400 243.600 C 367.536 243.380,367.999 243.200,368.429 243.200 C 368.859 243.200,369.568 243.020,370.005 242.800 C 370.442 242.580,371.158 242.220,371.595 242.000 C 372.032 241.780,372.664 241.600,373.000 241.600 C 373.336 241.600,373.923 241.441,374.305 241.247 C 375.206 240.789,375.755 240.565,383.600 237.460 C 387.230 236.023,391.730 234.189,393.600 233.384 C 395.470 232.580,397.675 231.642,398.500 231.300 L 400.000 230.679 400.000 221.973 L 400.000 213.267 393.700 215.463 C 390.235 216.671,386.590 217.925,385.600 218.250 C 384.610 218.574,383.440 219.002,383.000 219.200 C 382.560 219.397,380.940 219.952,379.400 220.432 C 377.860 220.912,376.240 221.443,375.800 221.612 C 375.360 221.782,373.955 222.228,372.678 222.604 C 371.400 222.981,370.442 223.375,370.548 223.481 C 370.654 223.587,371.727 223.387,372.932 223.037 C 374.137 222.687,375.500 222.400,375.962 222.400 C 376.423 222.400,376.800 222.220,376.800 222.000 C 376.800 221.780,376.972 221.600,377.182 221.600 C 377.694 221.600,377.327 226.958,376.804 227.132 C 376.582 227.206,376.400 228.062,376.400 229.033 C 376.400 230.005,376.220 230.800,376.000 230.800 C 375.778 230.800,375.600 231.867,375.600 233.200 C 375.600 234.533,375.422 235.600,375.200 235.600 C 374.980 235.600,374.800 236.140,374.800 236.800 C 374.800 237.460,374.620 238.000,374.400 238.000 C 374.180 238.000,374.000 238.283,374.000 238.629 C 374.000 239.437,373.037 240.400,372.229 240.400 C 371.883 240.400,371.600 240.580,371.600 240.800 C 371.600 241.020,371.240 241.200,370.800 241.200 C 370.360 241.200,370.000 241.380,370.000 241.600 C 370.000 241.820,369.460 242.000,368.800 242.000 C 368.140 242.000,367.600 242.180,367.600 242.400 C 367.600 242.620,367.238 242.800,366.795 242.800 C 366.352 242.800,365.677 242.962,365.295 243.159 C 364.690 243.472,363.443 243.858,357.400 245.605 C 351.799 247.224,339.209 247.064,328.200 245.233 C 320.535 243.958,316.977 243.318,311.400 242.211 C 310.740 242.080,309.210 241.785,308.000 241.554 C 306.790 241.324,305.080 240.982,304.200 240.794 C 303.320 240.607,301.430 240.249,300.000 240.000 C 298.570 239.750,296.643 239.377,295.718 239.172 C 294.035 238.797,283.382 236.909,276.600 235.783 C 274.620 235.454,271.965 235.008,270.700 234.793 C 266.198 234.024,263.755 233.650,260.400 233.216 C 258.530 232.974,255.740 232.609,254.200 232.404 C 248.756 231.683,242.124 230.991,230.400 229.920 C 223.440 229.284,198.574 229.282,192.000 229.916 C 189.250 230.182,184.930 230.586,182.400 230.814 C 173.302 231.634,160.182 233.335,151.600 234.808 C 150.390 235.015,147.690 235.468,145.600 235.814 C 143.510 236.159,140.900 236.603,139.800 236.798 C 138.700 236.994,135.730 237.521,133.200 237.968 C 130.670 238.416,125.360 239.430,121.400 240.222 C 117.440 241.014,113.210 241.835,112.000 242.047 C 110.790 242.258,108.990 242.589,108.000 242.781 C 107.010 242.974,105.030 243.342,103.600 243.600 C 102.170 243.858,100.100 244.232,99.000 244.433 C 90.840 245.918,86.849 246.421,80.800 246.727 C 74.971 247.022,68.366 246.726,65.800 246.054 C 64.920 245.824,63.660 245.524,63.000 245.388 C 62.340 245.251,61.440 244.994,61.000 244.815 C 60.560 244.637,59.390 244.273,58.400 244.007 C 57.410 243.740,56.287 243.360,55.905 243.161 C 55.523 242.962,54.848 242.800,54.405 242.800 C 53.962 242.800,53.600 242.620,53.600 242.400 C 53.600 242.180,53.161 242.000,52.624 242.000 C 52.087 242.000,51.536 241.820,51.400 241.600 C 51.264 241.380,50.713 241.200,50.176 241.200 C 49.639 241.200,49.200 241.020,49.200 240.800 C 49.200 240.580,48.838 240.400,48.395 240.400 C 47.952 240.400,47.277 240.241,46.895 240.047 C 46.208 239.697,44.849 239.127,43.100 238.454 C 42.605 238.263,41.660 237.879,41.000 237.600 C 40.340 237.321,39.395 236.937,38.900 236.746 C 36.571 235.850,36.077 235.646,34.300 234.851 C 33.255 234.383,31.545 233.620,30.500 233.156 C 29.455 232.692,28.287 232.152,27.905 231.956 C 27.523 231.760,26.938 231.600,26.605 231.600 C 26.272 231.600,26.000 231.420,26.000 231.200 C 26.000 230.980,25.735 230.800,25.412 230.800 C 25.089 230.800,24.183 230.440,23.400 230.000 C 22.617 229.560,21.711 229.200,21.388 229.200 C 21.065 229.200,20.800 229.020,20.800 228.800 C 20.800 228.580,20.440 228.400,20.000 228.400 C 19.319 228.400,19.200 228.133,19.200 226.600 C 19.200 225.610,19.020 224.800,18.800 224.800 C 18.567 224.800,18.400 223.467,18.400 221.600 C 18.400 219.733,18.233 218.400,18.000 218.400 C 17.780 218.400,17.600 217.860,17.600 217.200 C 17.600 216.540,17.420 216.000,17.200 216.000 C 16.980 216.000,16.800 215.280,16.800 214.400 L 16.800 212.800 18.520 212.800 C 19.466 212.800,20.437 212.997,20.678 213.238 C 20.918 213.478,21.439 213.613,21.835 213.536 C 22.231 213.460,20.675 212.713,18.378 211.877 C 13.959 210.268,8.338 208.149,7.000 207.588 C 6.560 207.404,5.480 207.023,4.600 206.743 C 3.720 206.463,2.820 206.116,2.600 205.972 C 2.380 205.828,1.705 205.592,1.100 205.448 L 0.000 205.185 -0.000 213.095 M174.175 208.900 L 173.000 210.200 174.300 209.025 C 175.512 207.930,175.784 207.600,175.475 207.600 C 175.406 207.600,174.821 208.185,174.175 208.900 M235.500 212.682 C 235.995 212.778,236.805 212.778,237.300 212.682 C 237.795 212.587,237.390 212.509,236.400 212.509 C 235.410 212.509,235.005 212.587,235.500 212.682 M169.203 213.189 C 168.348 213.730,169.244 214.518,170.454 214.288 C 171.288 214.130,171.264 214.102,170.251 214.054 C 169.277 214.008,169.178 213.908,169.600 213.400 C 170.171 212.712,170.055 212.651,169.203 213.189 M245.000 213.200 L 242.600 213.466 244.876 213.533 C 246.128 213.570,247.264 213.420,247.400 213.200 C 247.536 212.980,247.592 212.830,247.524 212.867 C 247.456 212.904,246.320 213.054,245.000 213.200 M175.700 213.487 C 176.305 213.578,177.295 213.578,177.900 213.487 C 178.505 213.395,178.010 213.320,176.800 213.320 C 175.590 213.320,175.095 213.395,175.700 213.487 M22.800 214.000 C 22.800 214.220,23.295 214.387,23.900 214.372 C 24.875 214.347,24.909 214.305,24.200 214.000 C 23.107 213.531,22.800 213.531,22.800 214.000 M25.400 214.800 C 25.536 215.020,26.042 215.187,26.524 215.172 C 27.369 215.145,27.371 215.131,26.600 214.800 C 25.499 214.327,25.108 214.327,25.400 214.800 M302.800 222.400 C 304.168 222.838,305.219 222.838,304.200 222.400 C 303.760 222.211,303.040 222.062,302.600 222.068 C 301.957 222.077,301.996 222.143,302.800 222.400 M307.200 223.200 C 307.530 223.413,308.070 223.588,308.400 223.588 C 308.933 223.588,308.933 223.545,308.400 223.200 C 308.070 222.987,307.530 222.812,307.200 222.812 C 306.667 222.812,306.667 222.855,307.200 223.200 M109.200 224.000 C 108.376 224.264,108.341 224.326,109.000 224.354 C 109.440 224.373,110.070 224.213,110.400 224.000 C 111.101 223.547,110.614 223.547,109.200 224.000 M311.200 224.000 C 311.530 224.213,312.160 224.378,312.600 224.366 L 313.400 224.344 312.600 224.000 C 311.404 223.486,310.405 223.486,311.200 224.000 M368.000 224.000 C 367.467 224.345,367.467 224.388,368.000 224.388 C 368.330 224.388,368.870 224.213,369.200 224.000 C 369.733 223.655,369.733 223.612,369.200 223.612 C 368.870 223.612,368.330 223.787,368.000 224.000 M104.600 224.800 C 103.493 225.082,103.477 225.109,104.400 225.147 C 104.950 225.169,105.670 225.013,106.000 224.800 C 106.681 224.360,106.329 224.360,104.600 224.800 " stroke="none" fill="#78bad4" fill-rule="evenodd"></path><path id="path2" d="M0.000 102.592 L 0.000 205.185 1.100 205.448 C 1.705 205.592,2.380 205.828,2.600 205.972 C 2.820 206.116,3.720 206.463,4.600 206.743 C 5.480 207.023,6.560 207.404,7.000 207.588 C 7.848 207.944,12.109 209.558,17.400 211.528 C 20.923 212.840,34.981 217.799,37.200 218.513 C 37.970 218.761,38.771 219.107,38.980 219.282 C 39.189 219.457,39.686 219.600,40.085 219.600 C 40.484 219.600,41.123 219.758,41.505 219.951 C 41.887 220.144,42.920 220.516,43.800 220.777 C 44.680 221.039,45.760 221.400,46.200 221.579 C 46.640 221.758,48.350 222.308,50.000 222.801 C 51.650 223.293,53.450 223.852,54.000 224.041 C 54.550 224.230,55.990 224.647,57.200 224.966 C 58.410 225.286,60.451 225.831,61.735 226.178 C 70.840 228.635,82.430 228.623,96.400 226.143 C 98.270 225.812,100.520 225.449,101.400 225.337 C 104.084 224.997,104.182 224.834,102.303 223.834 C 94.755 219.821,85.071 209.431,80.089 200.000 C 59.904 161.794,83.014 115.146,125.645 108.041 C 156.235 102.943,186.030 120.907,195.857 150.375 C 198.756 159.068,199.930 169.764,198.797 177.167 C 197.602 184.984,197.591 185.031,195.615 191.017 C 193.454 197.562,189.132 205.343,184.868 210.363 L 183.030 212.527 185.615 212.276 C 201.268 210.762,230.258 210.743,234.171 212.244 C 235.116 212.607,234.947 212.267,233.329 210.556 C 220.037 196.492,215.283 170.630,222.220 150.113 C 238.294 102.573,300.515 92.021,332.057 131.487 C 333.025 132.698,336.800 138.331,336.800 138.564 C 336.800 138.675,337.298 139.628,337.906 140.682 C 348.998 159.918,347.214 188.009,333.697 206.934 C 329.430 212.909,317.752 223.873,315.483 224.034 C 314.745 224.087,317.134 224.754,319.600 225.183 C 320.810 225.394,322.880 225.762,324.200 226.002 C 334.184 227.814,344.910 228.642,350.327 228.018 C 354.792 227.504,363.877 225.459,368.000 224.041 C 368.550 223.852,370.350 223.293,372.000 222.801 C 373.650 222.308,375.360 221.770,375.800 221.605 C 376.240 221.440,377.860 220.912,379.400 220.432 C 380.940 219.952,382.560 219.397,383.000 219.199 C 383.707 218.881,389.333 216.919,397.200 214.247 L 399.800 213.364 399.901 106.682 L 400.001 0.000 200.001 0.000 L 0.000 0.000 0.000 102.592 M184.166 21.300 C 184.243 21.575,184.518 23.060,184.777 24.600 C 185.036 26.140,185.401 28.210,185.589 29.200 C 186.044 31.605,186.638 34.873,187.151 37.800 C 187.383 39.120,187.935 42.180,188.378 44.600 C 189.938 53.114,192.800 69.541,192.800 69.979 C 192.800 70.159,192.485 70.402,192.100 70.518 C 191.715 70.634,186.360 72.467,180.200 74.591 C 174.040 76.715,167.650 78.895,166.000 79.436 C 164.350 79.976,162.687 80.594,162.305 80.809 C 161.923 81.024,161.336 81.200,161.000 81.200 C 160.664 81.200,160.077 81.377,159.695 81.592 C 159.313 81.808,157.110 82.610,154.800 83.374 C 152.490 84.138,147.990 85.663,144.800 86.762 C 141.610 87.861,134.500 90.311,129.000 92.206 C 123.500 94.101,116.930 96.352,114.400 97.209 C 111.870 98.065,106.650 99.859,102.800 101.194 C 93.276 104.497,78.851 109.454,75.218 110.672 L 72.235 111.672 69.618 108.936 C 68.178 107.431,64.570 103.583,61.600 100.385 C 58.630 97.187,54.220 92.445,51.800 89.847 C 49.380 87.249,47.341 84.963,47.269 84.767 C 47.151 84.450,50.149 82.913,56.800 79.881 C 58.010 79.330,60.980 77.942,63.400 76.797 C 69.416 73.951,74.249 71.689,76.400 70.712 C 77.390 70.262,80.270 68.908,82.800 67.703 C 85.330 66.498,88.390 65.057,89.600 64.500 C 90.810 63.944,93.510 62.682,95.600 61.695 C 99.740 59.742,103.527 57.975,107.651 56.076 C 109.108 55.404,111.808 54.142,113.651 53.272 C 115.493 52.401,118.350 51.060,120.000 50.292 C 121.650 49.524,124.530 48.175,126.400 47.294 C 132.705 44.325,136.987 42.320,139.451 41.184 C 140.798 40.563,143.408 39.343,145.251 38.475 C 147.093 37.606,150.220 36.132,152.200 35.201 C 154.180 34.269,157.060 32.914,158.600 32.189 C 160.140 31.464,163.920 29.703,167.000 28.275 C 170.080 26.847,174.670 24.699,177.200 23.502 C 183.546 20.499,183.908 20.385,184.166 21.300 M175.201 31.856 C 173.992 32.421,171.652 33.515,170.001 34.288 C 165.850 36.232,162.592 37.738,160.000 38.911 C 158.790 39.459,156.630 40.449,155.200 41.110 C 151.874 42.649,143.027 46.731,139.400 48.401 C 137.860 49.110,135.475 50.210,134.100 50.845 C 132.725 51.480,130.475 52.519,129.100 53.153 C 127.725 53.788,125.227 54.950,123.549 55.736 C 120.309 57.253,116.287 59.106,113.000 60.598 C 110.828 61.583,104.375 64.578,96.749 68.139 C 93.904 69.468,91.424 70.613,86.000 73.102 C 84.790 73.657,82.090 74.913,80.000 75.893 C 77.910 76.874,74.490 78.450,72.400 79.397 C 64.817 82.831,59.200 85.567,59.200 85.826 C 59.200 86.106,60.754 87.954,67.600 95.812 C 69.910 98.464,72.561 101.517,73.491 102.598 L 75.182 104.563 77.691 103.711 C 79.071 103.242,82.810 101.934,86.000 100.804 C 89.190 99.675,92.790 98.414,94.000 98.001 C 95.210 97.589,98.270 96.513,100.800 95.610 C 103.330 94.706,107.650 93.182,110.400 92.222 C 113.150 91.263,118.550 89.372,122.400 88.022 C 126.250 86.671,130.210 85.295,131.200 84.963 C 132.190 84.631,133.360 84.201,133.800 84.006 C 134.240 83.812,135.770 83.269,137.200 82.800 C 138.630 82.331,140.160 81.787,140.600 81.591 C 141.040 81.394,142.750 80.784,144.400 80.235 C 146.050 79.686,150.010 78.315,153.200 77.188 C 162.499 73.905,173.619 70.005,176.000 69.193 C 186.563 65.592,185.996 66.045,185.053 61.950 C 184.258 58.501,183.763 56.329,183.175 53.700 C 182.941 52.655,182.592 51.170,182.400 50.400 C 182.208 49.630,181.859 48.145,181.625 47.100 C 178.704 34.050,177.905 30.796,177.624 30.814 C 177.501 30.822,176.410 31.290,175.201 31.856 M238.892 48.943 C 240.491 49.462,244.230 50.653,247.200 51.590 C 250.170 52.527,253.410 53.557,254.400 53.879 C 257.826 54.993,277.808 61.274,279.800 61.864 C 280.900 62.189,282.790 62.786,284.000 63.191 C 285.210 63.595,288.630 64.681,291.600 65.603 C 294.570 66.526,298.530 67.784,300.400 68.400 C 302.270 69.016,306.230 70.277,309.200 71.204 C 320.120 74.612,322.309 75.299,327.600 76.984 C 330.570 77.930,335.430 79.463,338.400 80.392 C 341.370 81.321,345.330 82.579,347.200 83.188 C 349.070 83.797,352.490 84.872,354.800 85.578 C 359.717 87.080,360.858 87.582,360.538 88.100 C 360.409 88.309,358.760 90.667,356.873 93.340 C 354.986 96.013,352.443 99.619,351.221 101.354 C 341.841 114.674,342.315 114.081,341.200 113.885 C 340.172 113.703,299.227 105.412,296.000 104.733 C 295.010 104.524,293.390 104.205,292.400 104.023 C 291.410 103.841,286.910 102.931,282.400 102.001 C 277.890 101.070,273.750 100.223,273.200 100.119 C 272.650 100.015,270.850 99.653,269.200 99.315 C 267.550 98.978,265.750 98.618,265.200 98.515 C 264.147 98.320,259.445 97.366,256.400 96.729 C 255.410 96.523,253.790 96.206,252.800 96.026 C 250.074 95.529,236.866 92.849,234.657 92.344 L 232.714 91.900 232.970 88.650 C 233.112 86.862,233.406 81.170,233.624 76.000 C 233.842 70.830,234.189 62.589,234.395 57.687 C 234.858 46.647,234.423 47.494,238.892 48.943 M241.379 56.834 C 241.258 57.031,240.993 59.128,240.790 61.495 C 240.588 63.863,240.236 67.780,240.008 70.200 C 239.781 72.620,239.421 76.580,239.208 79.000 C 238.996 81.420,238.704 84.326,238.560 85.457 C 238.267 87.765,238.153 87.662,241.800 88.381 C 242.900 88.598,247.760 89.602,252.600 90.613 C 257.440 91.624,263.110 92.797,265.200 93.221 C 267.290 93.644,270.710 94.363,272.800 94.818 C 274.890 95.273,277.500 95.815,278.600 96.022 C 279.700 96.229,281.320 96.559,282.200 96.756 C 284.392 97.246,291.843 98.822,293.800 99.209 C 298.974 100.233,299.949 100.431,301.400 100.755 C 302.280 100.951,305.700 101.670,309.000 102.351 C 312.300 103.032,317.520 104.116,320.600 104.759 C 336.122 107.998,338.516 108.442,338.801 108.134 C 339.358 107.530,349.834 91.410,350.072 90.790 C 350.251 90.324,349.602 89.968,347.252 89.244 C 345.573 88.726,343.210 87.990,342.000 87.607 C 340.790 87.224,338.450 86.501,336.800 86.000 C 335.150 85.499,332.810 84.771,331.600 84.382 C 328.829 83.490,312.204 78.349,297.800 73.929 C 295.600 73.254,292.810 72.381,291.600 71.990 C 290.390 71.599,287.510 70.699,285.200 69.990 C 282.890 69.281,280.010 68.378,278.800 67.984 C 277.590 67.589,274.710 66.696,272.400 65.999 C 270.090 65.302,265.410 63.860,262.000 62.795 C 254.475 60.444,250.961 59.356,247.800 58.397 C 246.480 57.996,244.545 57.400,243.500 57.073 C 242.444 56.743,241.501 56.637,241.379 56.834 M61.600 135.640 C 61.600 135.882,61.070 137.907,60.423 140.140 C 58.830 145.633,57.770 150.725,56.748 157.800 C 56.138 162.021,56.141 178.560,56.752 182.400 C 57.015 184.050,57.508 186.886,57.847 188.703 C 58.187 190.520,58.374 192.230,58.264 192.503 C 58.153 192.776,58.049 192.595,58.032 192.100 C 58.014 191.605,57.847 191.200,57.661 191.200 C 57.474 191.200,57.036 190.345,56.687 189.300 C 56.338 188.255,55.659 186.320,55.177 185.000 C 50.867 173.180,50.459 159.567,54.084 148.600 C 56.031 142.712,61.600 133.109,61.600 135.640 M360.370 140.000 C 368.425 153.537,369.398 169.599,363.219 187.000 C 362.516 188.980,361.843 190.915,361.724 191.300 C 361.604 191.685,361.348 192.000,361.153 192.000 C 360.959 192.000,360.786 192.405,360.768 192.900 C 360.751 193.395,360.647 193.576,360.536 193.303 C 360.426 193.030,360.616 191.320,360.958 189.503 C 364.086 172.900,362.839 155.265,357.268 137.330 C 356.347 134.366,357.721 135.549,360.370 140.000 M67.009 149.700 C 66.849 150.415,66.552 151.720,66.348 152.600 C 65.388 156.759,65.127 159.684,64.935 168.416 C 64.804 174.394,64.887 178.690,65.163 180.184 C 65.712 183.154,65.443 183.450,64.378 181.044 C 60.985 173.372,60.909 163.125,64.179 154.000 C 65.797 149.484,67.707 146.582,67.009 149.700 M352.970 150.740 C 357.719 160.112,358.337 173.003,354.459 181.762 C 353.364 184.235,353.111 184.002,353.606 180.975 C 354.589 174.978,353.973 160.725,352.416 153.400 C 351.279 148.052,351.375 147.593,352.970 150.740 " stroke="none" fill="#cb853a" fill-rule="evenodd"></path><path id="path3" d="M128.200 115.805 C 119.210 117.208,111.816 119.997,105.015 124.549 C 99.807 128.035,92.545 135.354,90.082 139.600 C 89.508 140.590,88.935 141.490,88.810 141.600 C 88.324 142.025,86.009 146.743,84.841 149.690 C 80.244 161.288,79.713 173.388,83.261 185.714 C 84.596 190.352,88.948 199.541,90.407 200.800 C 90.534 200.910,91.077 201.630,91.614 202.400 C 94.909 207.132,99.642 211.609,105.566 215.598 C 107.512 216.909,110.341 218.543,111.852 219.229 C 117.111 221.615,118.000 222.073,118.000 222.395 C 118.000 222.574,117.235 222.817,116.300 222.936 C 115.365 223.055,113.610 223.351,112.400 223.592 C 108.047 224.461,105.751 224.839,102.800 225.173 C 101.150 225.360,98.270 225.790,96.400 226.130 C 82.738 228.610,70.833 228.636,61.835 226.204 C 60.606 225.872,58.565 225.327,57.300 224.992 C 56.035 224.658,54.550 224.229,54.000 224.039 C 53.450 223.848,52.190 223.465,51.200 223.187 C 46.587 221.890,28.786 216.085,27.905 215.590 C 27.523 215.376,26.859 215.200,26.429 215.200 C 25.999 215.200,25.536 215.020,25.400 214.800 C 25.264 214.580,24.623 214.400,23.976 214.400 C 23.329 214.400,22.800 214.220,22.800 214.000 C 22.800 213.780,22.361 213.600,21.824 213.600 C 21.287 213.600,20.736 213.420,20.600 213.200 C 20.464 212.980,19.553 212.800,18.576 212.800 L 16.800 212.800 16.800 214.400 C 16.800 215.280,16.980 216.000,17.200 216.000 C 17.420 216.000,17.600 216.540,17.600 217.200 C 17.600 217.860,17.780 218.400,18.000 218.400 C 18.233 218.400,18.400 219.733,18.400 221.600 C 18.400 223.467,18.567 224.800,18.800 224.800 C 19.020 224.800,19.200 225.610,19.200 226.600 C 19.200 228.133,19.319 228.400,20.000 228.400 C 20.440 228.400,20.800 228.580,20.800 228.800 C 20.800 229.020,21.065 229.200,21.388 229.200 C 21.711 229.200,22.617 229.560,23.400 230.000 C 24.183 230.440,25.089 230.800,25.412 230.800 C 25.735 230.800,26.000 230.980,26.000 231.200 C 26.000 231.420,26.272 231.600,26.605 231.600 C 26.938 231.600,27.523 231.760,27.905 231.956 C 28.287 232.152,29.455 232.692,30.500 233.156 C 31.545 233.620,33.255 234.383,34.300 234.851 C 35.345 235.319,36.605 235.859,37.100 236.051 C 37.595 236.243,38.450 236.580,39.000 236.800 C 39.550 237.020,40.450 237.380,41.000 237.600 C 41.550 237.820,42.405 238.156,42.900 238.346 C 44.401 238.924,46.160 239.673,46.895 240.047 C 47.277 240.241,47.952 240.400,48.395 240.400 C 48.838 240.400,49.200 240.580,49.200 240.800 C 49.200 241.020,49.639 241.200,50.176 241.200 C 50.713 241.200,51.264 241.380,51.400 241.600 C 51.536 241.820,52.087 242.000,52.624 242.000 C 53.161 242.000,53.600 242.180,53.600 242.400 C 53.600 242.620,53.962 242.800,54.405 242.800 C 54.848 242.800,55.523 242.962,55.905 243.161 C 56.287 243.360,57.410 243.740,58.400 244.007 C 59.390 244.273,60.560 244.637,61.000 244.815 C 61.440 244.994,62.340 245.251,63.000 245.388 C 63.660 245.524,64.920 245.824,65.800 246.054 C 68.366 246.726,74.971 247.022,80.800 246.727 C 86.849 246.421,90.840 245.918,99.000 244.433 C 100.100 244.232,102.170 243.858,103.600 243.600 C 105.030 243.342,107.010 242.974,108.000 242.781 C 108.990 242.589,110.790 242.258,112.000 242.047 C 113.210 241.835,117.440 241.014,121.400 240.222 C 125.360 239.430,130.670 238.416,133.200 237.968 C 135.730 237.521,138.700 236.994,139.800 236.798 C 140.900 236.603,143.510 236.159,145.600 235.814 C 147.690 235.468,150.390 235.015,151.600 234.808 C 160.182 233.335,173.302 231.634,182.400 230.814 C 184.930 230.586,189.250 230.182,192.000 229.916 C 198.574 229.282,223.440 229.284,230.400 229.920 C 242.124 230.991,248.756 231.683,254.200 232.404 C 255.740 232.609,258.530 232.974,260.400 233.216 C 263.755 233.650,266.198 234.024,270.700 234.793 C 271.965 235.008,274.620 235.454,276.600 235.783 C 283.382 236.909,294.035 238.797,295.718 239.172 C 296.643 239.377,298.570 239.750,300.000 240.000 C 301.430 240.249,303.320 240.607,304.200 240.794 C 305.080 240.982,306.790 241.324,308.000 241.554 C 309.210 241.785,310.740 242.080,311.400 242.211 C 314.644 242.855,316.811 243.263,319.000 243.642 C 320.320 243.871,322.390 244.231,323.600 244.443 C 332.953 246.077,335.614 246.378,343.129 246.648 C 349.330 246.872,354.268 246.511,357.400 245.605 C 363.443 243.858,364.690 243.472,365.295 243.159 C 365.677 242.962,366.352 242.800,366.795 242.800 C 367.238 242.800,367.600 242.620,367.600 242.400 C 367.600 242.180,368.140 242.000,368.800 242.000 C 369.460 242.000,370.000 241.820,370.000 241.600 C 370.000 241.380,370.360 241.200,370.800 241.200 C 371.240 241.200,371.600 241.020,371.600 240.800 C 371.600 240.580,371.883 240.400,372.229 240.400 C 373.037 240.400,374.000 239.437,374.000 238.629 C 374.000 238.283,374.180 238.000,374.400 238.000 C 374.620 238.000,374.800 237.460,374.800 236.800 C 374.800 236.140,374.980 235.600,375.200 235.600 C 375.422 235.600,375.600 234.533,375.600 233.200 C 375.600 231.867,375.778 230.800,376.000 230.800 C 376.220 230.800,376.400 230.005,376.400 229.033 C 376.400 228.062,376.582 227.206,376.804 227.132 C 377.327 226.958,377.694 221.600,377.182 221.600 C 376.972 221.600,376.800 221.780,376.800 222.000 C 376.800 222.220,376.469 222.400,376.064 222.400 C 375.409 222.400,371.544 223.347,367.600 224.474 C 366.830 224.694,365.613 224.968,364.896 225.081 C 364.179 225.195,363.494 225.449,363.373 225.644 C 363.252 225.840,362.544 226.000,361.800 226.000 C 361.056 226.000,360.348 226.161,360.226 226.358 C 360.105 226.555,359.329 226.817,358.503 226.942 C 357.676 227.067,355.920 227.351,354.600 227.575 C 347.926 228.704,342.648 228.569,330.600 226.960 C 326.375 226.396,325.116 226.188,319.800 225.180 C 318.480 224.930,316.050 224.572,314.400 224.384 C 312.750 224.197,310.500 223.860,309.400 223.637 C 308.300 223.414,306.410 223.063,305.200 222.856 C 300.875 222.119,299.758 221.538,301.500 220.931 C 308.938 218.343,319.545 210.506,324.400 204.011 C 324.950 203.275,325.625 202.445,325.900 202.165 C 326.175 201.886,326.400 201.464,326.400 201.229 C 326.400 200.993,326.580 200.800,326.800 200.800 C 327.020 200.800,327.200 200.607,327.200 200.372 C 327.200 200.137,327.753 199.140,328.430 198.157 C 330.977 194.454,334.239 186.007,335.132 180.800 C 336.793 171.113,336.793 168.895,335.132 159.200 C 334.307 154.384,329.942 142.926,328.427 141.600 C 328.302 141.490,327.944 140.905,327.632 140.300 C 327.320 139.695,326.915 139.200,326.732 139.200 C 326.550 139.200,326.400 139.000,326.400 138.756 C 326.400 136.163,314.137 125.240,307.200 121.652 C 251.597 92.900,199.066 164.638,243.305 208.910 C 248.071 213.680,248.100 213.907,243.873 213.424 C 242.513 213.268,239.870 213.019,238.000 212.869 C 236.130 212.719,234.397 212.465,234.148 212.304 C 231.472 210.574,195.472 210.813,183.765 212.638 C 181.584 212.978,178.090 213.414,176.000 213.607 C 173.910 213.800,171.548 214.077,170.751 214.223 C 168.823 214.576,168.393 213.835,169.858 212.684 C 197.104 191.280,196.865 147.956,169.384 126.782 C 165.847 124.056,162.125 121.896,156.800 119.478 C 149.118 115.989,136.992 114.432,128.200 115.805 M137.600 156.521 C 151.082 161.419,152.511 178.734,139.929 184.739 C 135.436 186.883,127.014 186.211,125.387 183.579 C 125.191 183.261,125.239 183.177,125.518 183.349 C 126.278 183.819,129.492 182.767,130.467 181.729 C 132.751 179.298,131.139 174.602,127.727 173.746 C 125.123 173.092,121.738 176.544,122.188 179.394 L 122.440 180.988 121.309 179.722 C 112.502 169.858,125.065 151.967,137.600 156.521 M285.736 157.403 C 290.005 159.591,292.556 162.497,293.959 166.770 C 294.848 169.478,295.120 174.555,294.400 175.000 C 294.180 175.136,294.000 175.591,294.000 176.011 C 294.000 180.625,286.271 186.000,279.638 186.000 C 274.074 186.000,270.134 184.128,273.700 183.178 C 276.902 182.326,278.478 179.861,277.574 177.121 C 275.885 172.004,268.607 173.072,268.602 178.439 C 268.600 180.543,268.412 180.755,267.423 179.766 C 265.232 177.575,264.037 170.393,265.238 166.634 C 267.994 158.007,278.063 153.472,285.736 157.403 " stroke="none" fill="#e6e6e6" fill-rule="evenodd"></path><path id="path4" d="M182.400 21.094 C 182.070 21.221,179.730 22.305,177.200 23.502 C 174.670 24.699,170.080 26.847,167.000 28.275 C 163.920 29.703,160.140 31.464,158.600 32.189 C 157.060 32.914,154.180 34.269,152.200 35.201 C 150.220 36.132,147.093 37.606,145.251 38.475 C 143.408 39.343,140.798 40.563,139.451 41.184 C 136.987 42.320,132.705 44.325,126.400 47.294 C 124.530 48.175,121.650 49.524,120.000 50.292 C 118.350 51.060,115.493 52.401,113.651 53.272 C 111.808 54.142,109.108 55.404,107.651 56.076 C 103.527 57.975,99.740 59.742,95.600 61.695 C 93.510 62.682,90.810 63.944,89.600 64.500 C 88.390 65.057,85.330 66.498,82.800 67.703 C 80.270 68.908,77.390 70.262,76.400 70.712 C 74.249 71.689,69.416 73.951,63.400 76.797 C 60.980 77.942,58.010 79.330,56.800 79.881 C 50.149 82.913,47.151 84.450,47.269 84.767 C 47.341 84.963,49.380 87.249,51.800 89.847 C 54.220 92.445,58.630 97.187,61.600 100.385 C 64.570 103.583,68.178 107.431,69.618 108.936 L 72.235 111.672 75.218 110.672 C 78.851 109.454,93.276 104.497,102.800 101.194 C 106.650 99.859,111.870 98.065,114.400 97.209 C 116.930 96.352,123.500 94.101,129.000 92.206 C 134.500 90.311,141.610 87.861,144.800 86.762 C 147.990 85.663,152.490 84.138,154.800 83.374 C 157.110 82.610,159.313 81.808,159.695 81.592 C 160.077 81.377,160.664 81.200,161.000 81.200 C 161.336 81.200,161.923 81.024,162.305 80.809 C 162.687 80.594,164.350 79.976,166.000 79.436 C 167.650 78.895,174.040 76.715,180.200 74.591 C 186.360 72.467,191.715 70.634,192.100 70.518 C 192.485 70.402,192.800 70.159,192.800 69.979 C 192.800 69.541,189.938 53.114,188.378 44.600 C 187.935 42.180,187.383 39.120,187.151 37.800 C 186.638 34.873,186.044 31.605,185.589 29.200 C 185.401 28.210,185.036 26.140,184.777 24.600 C 184.078 20.440,184.082 20.447,182.400 21.094 M178.314 32.700 C 178.890 35.053,180.337 41.344,181.625 47.100 C 181.859 48.145,182.208 49.630,182.400 50.400 C 182.592 51.170,182.941 52.655,183.175 53.700 C 183.763 56.329,184.258 58.501,185.053 61.950 C 185.996 66.045,186.563 65.592,176.000 69.193 C 173.619 70.005,162.499 73.905,153.200 77.188 C 150.010 78.315,146.050 79.686,144.400 80.235 C 142.750 80.784,141.040 81.394,140.600 81.591 C 140.160 81.787,138.630 82.331,137.200 82.800 C 135.770 83.269,134.240 83.812,133.800 84.006 C 133.360 84.201,132.190 84.631,131.200 84.963 C 130.210 85.295,126.250 86.671,122.400 88.022 C 118.550 89.372,113.150 91.263,110.400 92.222 C 107.650 93.182,103.330 94.706,100.800 95.610 C 98.270 96.513,95.210 97.589,94.000 98.001 C 92.790 98.414,89.190 99.675,86.000 100.804 C 82.810 101.934,79.071 103.242,77.691 103.711 L 75.182 104.563 73.491 102.598 C 72.561 101.517,69.910 98.464,67.600 95.812 C 60.754 87.954,59.200 86.106,59.200 85.826 C 59.200 85.567,64.817 82.831,72.400 79.397 C 74.490 78.450,77.910 76.874,80.000 75.893 C 82.090 74.913,84.790 73.657,86.000 73.102 C 91.424 70.613,93.904 69.468,96.749 68.139 C 104.375 64.578,110.828 61.583,113.000 60.598 C 116.287 59.106,120.309 57.253,123.549 55.736 C 125.227 54.950,127.725 53.788,129.100 53.153 C 130.475 52.519,132.725 51.480,134.100 50.845 C 135.475 50.210,137.860 49.110,139.400 48.401 C 143.027 46.731,151.874 42.649,155.200 41.110 C 156.630 40.449,158.790 39.459,160.000 38.911 C 162.592 37.738,165.850 36.232,170.001 34.288 C 178.922 30.112,177.736 30.338,178.314 32.700 M235.008 48.387 C 234.877 48.600,234.601 52.785,234.395 57.687 C 234.189 62.589,233.842 70.830,233.624 76.000 C 233.406 81.170,233.112 86.862,232.970 88.650 L 232.714 91.900 234.657 92.344 C 236.866 92.849,250.074 95.529,252.800 96.026 C 253.790 96.206,255.410 96.523,256.400 96.729 C 259.445 97.366,264.147 98.320,265.200 98.515 C 265.750 98.618,267.550 98.978,269.200 99.315 C 270.850 99.653,272.650 100.015,273.200 100.119 C 273.750 100.223,277.890 101.070,282.400 102.001 C 286.910 102.931,291.410 103.841,292.400 104.023 C 293.390 104.205,295.010 104.524,296.000 104.733 C 299.227 105.412,340.172 113.703,341.200 113.885 C 342.315 114.081,341.841 114.674,351.221 101.354 C 352.443 99.619,354.986 96.013,356.873 93.340 C 358.760 90.667,360.409 88.309,360.538 88.100 C 360.858 87.582,359.717 87.080,354.800 85.578 C 352.490 84.872,349.070 83.797,347.200 83.188 C 345.330 82.579,341.370 81.321,338.400 80.392 C 335.430 79.463,330.570 77.930,327.600 76.984 C 322.309 75.299,320.120 74.612,309.200 71.204 C 306.230 70.277,302.270 69.016,300.400 68.400 C 298.530 67.784,294.570 66.526,291.600 65.603 C 288.630 64.681,285.210 63.595,284.000 63.191 C 282.790 62.786,280.900 62.189,279.800 61.864 C 277.808 61.274,257.826 54.993,254.400 53.879 C 253.410 53.557,250.170 52.527,247.200 51.590 C 244.230 50.653,240.491 49.462,238.892 48.943 C 235.621 47.882,235.344 47.843,235.008 48.387 M247.800 58.397 C 250.961 59.356,254.475 60.444,262.000 62.795 C 265.410 63.860,270.090 65.302,272.400 65.999 C 274.710 66.696,277.590 67.589,278.800 67.984 C 280.010 68.378,282.890 69.281,285.200 69.990 C 287.510 70.699,290.390 71.599,291.600 71.990 C 292.810 72.381,295.600 73.254,297.800 73.929 C 312.204 78.349,328.829 83.490,331.600 84.382 C 332.810 84.771,335.150 85.499,336.800 86.000 C 338.450 86.501,340.790 87.224,342.000 87.607 C 343.210 87.990,345.573 88.726,347.252 89.244 C 349.602 89.968,350.251 90.324,350.072 90.790 C 349.834 91.410,339.358 107.530,338.801 108.134 C 338.516 108.442,336.122 107.998,320.600 104.759 C 317.520 104.116,312.300 103.032,309.000 102.351 C 305.700 101.670,302.280 100.951,301.400 100.755 C 299.949 100.431,298.974 100.233,293.800 99.209 C 291.843 98.822,284.392 97.246,282.200 96.756 C 281.320 96.559,279.700 96.229,278.600 96.022 C 277.500 95.815,274.890 95.273,272.800 94.818 C 270.710 94.363,267.290 93.644,265.200 93.221 C 263.110 92.797,257.440 91.624,252.600 90.613 C 247.760 89.602,242.900 88.598,241.800 88.381 C 238.153 87.662,238.267 87.765,238.560 85.457 C 238.704 84.326,238.996 81.420,239.208 79.000 C 239.421 76.580,239.781 72.620,240.008 70.200 C 240.236 67.780,240.588 63.863,240.790 61.495 C 241.241 56.228,241.170 56.344,243.500 57.073 C 244.545 57.400,246.480 57.996,247.800 58.397 M125.228 108.073 C 75.429 116.668,55.392 177.482,90.314 214.039 C 96.798 220.827,102.287 224.621,105.131 224.281 C 110.676 223.618,116.395 222.276,115.951 221.741 C 115.704 221.444,115.299 221.195,115.051 221.190 C 114.582 221.179,109.780 218.820,107.000 217.235 C 96.736 211.380,86.722 198.835,83.183 187.400 C 82.911 186.520,82.547 185.350,82.374 184.800 C 79.916 176.992,79.729 166.513,81.882 157.200 C 85.868 139.955,99.840 123.957,115.800 118.361 C 116.240 118.207,117.140 117.886,117.800 117.648 C 122.758 115.860,129.324 114.815,135.600 114.815 C 140.858 114.815,144.904 115.321,149.800 116.592 C 151.978 117.157,152.971 117.474,155.400 118.379 C 158.592 119.567,166.446 123.742,167.674 124.902 C 167.963 125.176,168.920 125.929,169.800 126.576 C 177.033 131.894,185.380 143.809,188.029 152.600 C 188.295 153.480,188.653 154.650,188.826 155.200 C 191.277 162.986,191.476 174.014,189.319 182.600 C 188.987 183.920,188.624 185.497,188.512 186.105 C 188.400 186.713,188.149 187.308,187.954 187.429 C 187.759 187.549,187.600 187.999,187.600 188.429 C 187.600 188.859,187.433 189.523,187.228 189.905 C 187.023 190.287,186.139 192.130,185.262 194.000 C 182.489 199.917,179.093 204.559,173.631 209.896 C 169.679 213.757,169.661 213.603,174.000 213.174 C 175.870 212.988,178.714 212.711,180.321 212.558 C 183.223 212.281,183.252 212.266,184.973 210.240 C 189.134 205.340,193.477 197.495,195.615 191.017 C 197.591 185.031,197.602 184.984,198.797 177.167 C 199.930 169.764,198.756 159.068,195.857 150.375 C 185.998 120.811,155.893 102.780,125.228 108.073 M271.228 108.073 C 224.465 116.144,203.139 171.227,232.108 209.120 C 234.248 211.920,234.570 212.054,240.021 212.433 C 242.590 212.612,245.212 212.878,245.846 213.026 C 246.837 213.256,246.542 212.842,243.757 210.097 C 238.672 205.084,234.107 198.821,231.734 193.600 C 230.000 189.784,228.730 186.099,227.668 181.800 C 225.983 174.982,225.984 164.995,227.669 158.200 C 228.645 154.264,228.967 153.210,230.109 150.200 C 240.510 122.802,272.292 107.871,299.400 117.648 C 300.060 117.886,300.960 118.207,301.400 118.361 C 309.142 121.075,320.285 129.299,325.028 135.800 C 325.670 136.680,326.295 137.490,326.416 137.600 C 328.964 139.914,334.355 151.992,335.521 158.000 C 335.756 159.210,336.140 161.159,336.374 162.331 C 338.160 171.260,335.983 184.286,330.974 194.640 C 325.781 205.374,316.971 213.989,305.200 219.842 C 301.387 221.738,301.221 221.508,307.200 222.615 C 309.070 222.962,311.464 223.415,312.520 223.622 C 315.569 224.222,315.759 224.155,319.896 221.039 C 344.654 202.389,352.725 166.380,337.906 140.682 C 337.298 139.628,336.800 138.675,336.800 138.564 C 336.800 138.454,335.881 137.001,334.757 135.336 C 320.659 114.444,295.893 103.816,271.228 108.073 M59.469 137.505 C 50.836 150.450,49.196 168.596,55.177 185.000 C 55.659 186.320,56.338 188.255,56.687 189.300 C 57.036 190.345,57.474 191.200,57.661 191.200 C 57.847 191.200,58.014 191.605,58.032 192.100 C 58.049 192.595,58.153 192.776,58.264 192.503 C 58.374 192.230,58.187 190.520,57.847 188.703 C 57.508 186.886,57.015 184.050,56.752 182.400 C 56.141 178.560,56.138 162.021,56.748 157.800 C 57.770 150.725,58.830 145.633,60.423 140.140 C 62.127 134.264,61.952 133.782,59.469 137.505 M357.121 135.812 C 356.985 135.949,357.051 136.632,357.268 137.330 C 361.204 150.002,362.467 158.168,362.477 171.006 C 362.483 179.613,362.222 182.793,360.958 189.503 C 360.616 191.320,360.426 193.030,360.536 193.303 C 360.647 193.576,360.751 193.395,360.768 192.900 C 360.786 192.405,360.959 192.000,361.153 192.000 C 361.348 192.000,361.604 191.685,361.724 191.300 C 361.843 190.915,362.516 188.980,363.219 187.000 C 367.999 173.539,368.482 160.459,364.621 149.000 C 362.895 143.876,357.878 135.055,357.121 135.812 M65.712 150.307 C 60.985 160.383,60.472 172.212,64.378 181.044 C 65.443 183.450,65.712 183.154,65.163 180.184 C 64.887 178.690,64.804 174.394,64.935 168.416 C 65.127 159.684,65.388 156.759,66.348 152.600 C 67.224 148.808,67.282 148.400,66.950 148.407 C 66.758 148.411,66.200 149.266,65.712 150.307 M351.743 150.100 C 351.880 150.815,352.183 152.300,352.416 153.400 C 353.973 160.725,354.589 174.978,353.606 180.975 C 353.111 184.002,353.364 184.235,354.459 181.762 C 357.619 174.625,357.881 164.601,355.127 156.242 C 353.336 150.807,351.106 146.760,351.743 150.100 M129.778 156.991 C 120.553 159.906,116.435 169.044,120.522 177.528 L 121.354 179.256 121.845 177.595 C 123.250 172.834,128.425 171.702,131.168 175.556 C 133.340 178.605,131.136 183.600,127.620 183.600 C 126.092 183.600,126.790 184.287,129.035 184.994 C 137.467 187.646,146.157 182.430,148.018 173.600 C 148.847 169.667,148.697 169.440,145.063 169.145 C 139.430 168.688,136.187 163.880,138.223 159.006 C 138.566 158.185,138.791 157.475,138.723 157.429 C 137.260 156.425,132.333 156.184,129.778 156.991 M275.778 156.991 C 266.857 159.810,262.646 169.345,266.633 177.700 C 267.486 179.489,268.000 179.624,268.000 178.059 C 268.000 172.421,276.846 171.861,278.238 177.411 C 278.893 180.019,276.291 183.600,273.741 183.600 C 271.191 183.600,273.921 184.969,277.696 185.583 C 286.109 186.952,294.376 179.783,294.396 171.100 L 294.400 169.200 291.960 169.200 C 286.371 169.200,282.493 164.437,284.183 159.647 C 284.994 157.351,285.035 157.468,283.206 156.897 C 281.218 156.277,277.908 156.319,275.778 156.991 " stroke="none" fill="#070605" fill-rule="evenodd"></path></g></svg>